<?xml version="1.0" encoding="utf-8"?>
<!-- Generator: Adobe Illustrator 19.2.1, SVG Export Plug-In . SVG Version: 6.00 Build 0)  -->
<svg version="1.1" id="Layer_1" xmlns="http://www.w3.org/2000/svg" xmlns:xlink="http://www.w3.org/1999/xlink" x="0px" y="0px"
	 viewBox="0 0 450.5 170.1" style="enable-background:new 0 0 450.5 170.1;" xml:space="preserve">
<style type="text/css">
	.st0{fill:#FFFFFF;}
</style>
<g>
	<path class="st0" d="M88.4,104.2c0.1,0,0.2,0,0.2,0c0.1-1.2,0.1-2.4,0.2-3.6c-0.1,0-0.3,0-0.4-0.1C88.4,101.8,88.4,103,88.4,104.2z
		"/>
	<path class="st0" d="M159.7,85.8c-0.9,1.1-0.4,2.6-1.5,3.5c-1.2,1-2.6,1.9-2.7,3.7c0,0.3-0.5,0.5-0.8,0.7c-2,1.1-3.7,2.5-5.8,3.4
		c-2.3,1-4.5,1.7-6.9,2.1c-0.8,0.1-1.6,0-2.4-0.1c-1-0.1-2-0.6-2.8-0.4c-1.8,0.5-2.7-1.4-4.3-1.4c-0.5,0-1-0.6-1.5-0.9
		c-0.1-0.1-0.3-0.2-0.2-0.3c0.3-1.2-1.5-1-1.4-1.6c0.4-1.5-1-1.1-1.5-1.8c-0.1-0.2-0.4-0.3-0.5-0.4c-1-0.9-2.4-1.5-2.4-3.2
		c0-0.2-0.8-0.6-0.4-1.3c-0.5-0.1-1-0.2-1.4-0.3c-0.1-0.7-0.1-1.9-0.4-1.9c-1.3-0.3-1-1.4-1.5-2.1c-0.6-0.8,0.4-1.6,0.2-1.7
		c-1.2-0.5-0.5-1.8-1.2-2.4s-0.4-1.3-0.2-2c0.1-0.5,0.4-0.9,0.6-1.4c-0.8-0.3-1.5-0.6-2.1-0.9c0.7-0.7,1.3-1.2,2-1.8
		c-0.7-0.4-1.2-0.8-1.7-1.1c0-0.2,0.1-0.3,0.1-0.4c1.1,0,2.2,0,3.3,0c1.6,0,3.3,0,4.9,0c3.4,0,6.9-0.4,10.2,0
		c3.2,0.4,6.4,0.1,9.6,0.1c3.2,0,6.4-0.3,9.6-0.4c1.3,0,2.7,0.3,4,0.4c1.5,0.1,1.8-0.6,1.9-2.1c0.2-1.6-1.5-2.7-0.9-4.3
		c-0.9-0.4-1-1.1-0.8-2c-1.8-0.5-1.8-2.3-2.5-3.6c-0.2-0.1-0.4-0.2-0.5-0.2c-2-0.1-1.4-3.1-3.5-3.2c0.3-0.4,0.5-0.7,0.8-1.2
		c-2.8-2.1-4.7-5-7.9-6.5c-0.6-0.3-1-1.2-1.6-1.4c-2.4-0.8-4.8-1.4-7.2-2.1c-1.7-0.5-3.5-0.2-5.2-0.1c-2.2,0.1-4.4,0-6.5,1.3
		c-1.3,0.9-2.6,1.9-4.3,2.1c-2.1,2.4-5.4,3.6-7.1,6.5c-0.3,0.4-0.8,0.7-1.1,1.1c-0.7,0.9-1.7,1.7-1.8,2.7c-0.3,1.5-0.8,2.6-1.9,3.6
		c-0.3,0.3-0.2,0.9-0.3,1.4c-0.4,0.9-0.4,0.9-0.5,2.8c0,0.1-0.1,0.3-0.2,0.4c-0.4,0.3-1.3,0.3-0.7,1.2c0.1,0.1-0.7,0.7-1,1.1
		c-0.7,1-0.2,2.4-1.3,3.3c-0.1,0,0,0.3,0,0.4c0.8,1.3-0.3,1.8-1.1,2.4c1.6,1-0.2,2.3,0.5,3.3c0.3,0.1,0.7,0.2,1,0.3
		c-0.3,0.8-0.7,1.6-1,2.4c0.4,0.2,0.9,0.5,1.3,0.7c-0.4,0.4-0.7,0.6-0.9,0.9c0.7,0.6,1.6,1.1,1.8,1.7c0.4,1.6,1,3,1.9,4.4
		c-0.2,0.2-0.5,0.4-0.9,0.7c0.6,0.4,1.1,0.7,1.7,1c-0.4,0.5-0.8,1-1.4,1.7c1.7,0.4,3.3,0.5,3.7,2.4c0,0.1,0.2,0.3,0.3,0.3
		c1.4-0.2,1.6,1.1,2.2,1.8c1,1,1.7,2.2,2.8,3.2c2.4,2.1,4.3,3.3,7.5,4c0.3,0.1,0.5,0.3,0.8,0.3c1.5,0.5,3.1,1.3,4.6,1.3
		c3.9,0.1,7.9,0.5,11.7-0.7c1.9-0.6,3.8-0.9,5.8-1.4c0.4-0.1,1.2-0.4,1.2-0.6c0-1.6,1.3-1.2,2.1-1.5c0.7-0.3,1.2-0.7,1.7-1.2
		c0.6-0.5,0.9-1.6,2.1-1.4c0.3,0.1,0.9-0.6,1.3-1.1c0.8-1.2,1.4-2.5,2.5-3.5c0.9-0.8,1.7-2,2.3-3.1s1.1-2.1,2.1-2.7
		c-0.4-1.1-0.7-2.1-1.1-3C161.8,85.8,160.7,85.8,159.7,85.8z M118.6,64.8c0.5-0.3,0.9-0.6,1.3-0.9c-0.2-0.1-0.4-0.3-0.5-0.4
		c0.2-0.9,0.2-1.9,0.7-2.5c0.6-0.7,1.1-1.3,0.7-2.3c1.3-0.5-0.3-1.9,0.8-2.5c1.2-0.7,2.3-1.6,3.9-2.8c1-2.3,2.2-2.9,5.4-2.7
		c1.5,0.1,3,0.9,4.5,0c0.3-0.2,0.9-0.1,1.3,0c1.8,0.9,4,1.6,5.4,2.9c2,2,3.6,4.4,5.3,6.8c0.5,0.7,0.3,1.7,0.4,2.6
		c0,0.2,0.1,0.5,0,0.6c-1,0.8-0.1,2.3-0.9,3c-0.5,0.4-1.3,0.7-2,0.7c-2.5,0-5-0.1-7.6-0.2c-5.5-0.2-11.1-0.3-16.6-0.6
		c-0.7,0-1.4-0.4-2.1-0.6c0-0.1,0-0.1,0-0.2c0.5,0,1.1,0,1.6,0c0-0.1,0.1-0.2,0.1-0.3C119.8,65.4,119.3,65.2,118.6,64.8z"/>
	<path class="st0" d="M315.1,84.6c-1-0.1-1.3,0.5-1.7,1.3c-1,2-1.8,4.2-3.7,5.7c-0.6,0.4-1.1,0.9-1.6,1.4c-3.9,3.8-8.7,5.3-14,5.3
		c-1.4,0-2.9-0.1-4.2,0.2c-1.7,0.3-3-0.1-4.3-1.1c-1.2-0.9-2.4-1.8-3.7-2.4c-2.1-0.8-3.4-2.2-4.4-4.1c-0.6-1-1.3-2-1.8-3
		c-0.6-1.1-1.4-2.2-1.6-3.3c-0.5-2.4-2.3-4.3-2.3-6.8c0-0.8,0.1-1.7-0.8-2.2c0.7-0.5,0.5-1.3,0.5-2c0-1.7,0.5-2,2.2-1.9
		c2.1,0.2,4.1,0.1,6.2-0.6c0.3-0.1,0.7-0.1,1.1-0.1c2.6-0.1,5.2-0.1,7.8-0.2c0.7,0,1.5-0.3,2.2-0.2c1.3,0.1,2.5,0.4,3.7,0.4
		c3.1,0.1,6.2,0.1,9.4,0.1c0.4,0,0.9-0.1,1.3-0.2s1.9,0.1,2.4,0.2c0.4,0.1,1.3,0.3,1.3,0.2c0.3-1.1,0.7-0.3,1.2-0.2
		c1.9,0.5,3.7,0.5,5.4-0.2c-0.4-5-1.5-9.8-4.9-13.4c-3.3-3.5-6.7-7.1-11.8-8c-0.2,0.5-0.4,0.8-0.6,1.2c-1.2-0.6-1.3-1.9-2.6-2.3
		c-2.1-0.6-4.2-1.2-6.5-1c-1.3,0.1-2.6,0.3-3.9,0.3c-4.1-0.2-7.6,1.7-11,3.6c-4.1,2.3-6.5,6.2-8.6,10.2c-1.6,3-2.3,6.2-3.3,9.4
		c-0.7,2.1-1.1,4.3-0.8,6.5c0.2,1.2,0.2,2.5,0.1,3.8c-0.4,4.3,0.7,8.2,3.3,11.5c2.5,3.2,5.2,6.3,8.1,9.2c1.5,1.5,3.7,2.1,5.5,3
		c2.2,1.1,4.8,1.4,7.3,1.9c1.2,0.2,2.4,0.4,3.5,0.3c0.7,0,1.6-1,1.8-0.8c0.9,0.7,1.5-0.1,2-0.3c3.5-1,7.2-1.4,10.3-3.3
		c2-1.2,3.9-2.5,5.5-4.1c1.8-1.7,3.3-3.8,4.2-6.2c0.3-0.8,0.8-1.7,1.5-2.2c1.4-0.9,1.2-2.3,1.5-3.6
		C316.8,85.8,315.8,84.7,315.1,84.6z M310.8,62c0.4,0.3,0.8,0.5,1.1,0.8c-0.1,0.1-0.1,0.2-0.2,0.3c-0.4-0.3-0.7-0.5-1.1-0.8
		C310.5,62.2,310.6,62.1,310.8,62z M310,64.7c0.1,0.4,0.3,0.9,0.4,1.3c-0.2,0.1-0.4,0.1-0.5,0.2c-0.1-0.5-0.2-0.9-0.2-1.4
		C309.8,64.8,309.9,64.7,310,64.7z M264.5,74c-0.2-1-0.3-2.1-0.5-3.1c0.2,0,0.3-0.1,0.5-0.1C265.4,71.7,264.8,72.9,264.5,74z
		 M264.1,69.8c0.1-0.3,0.2-0.7,0.3-1c-0.1-0.5-0.2-1-0.3-1.7c1.2,0.5,1.1,1.1,0.8,1.7c0.1,0.3,0.2,0.6,0.2,1
		C264.8,69.7,264.4,69.8,264.1,69.8z M267.2,78.5c-0.2,0-0.4-0.1-0.5-0.1c0.1-0.4,0.2-0.7,0.3-1.1c0.1,0,0.4,0.1,0.4,0.1
		C267.3,77.8,267.3,78.1,267.2,78.5z M267.4,70.5c-1.4-2.7-1.3-3.2,0.6-5.3C267.8,67.1,267.6,68.6,267.4,70.5z M271.5,64.9
		c0.5-1.1,1.1-2,1.4-3.3c0.2-1.1,1.1-2.1,1.3-3.2c0.4-2.6,2.2-4.1,4.1-5.6c0.1,0.3,0.2,0.5,0.2,0.5c2.4-1,4.9-1.9,7.1-2.9
		c0.3,0.4,0.7,1,0.9,0.9c2.7-0.4,5.3,0.4,7.5,1.8c1.6,1,3.2,2.2,3.7,4.3c0.2,1,1,1.9,1.6,2.6c1.7,2,1.4,4.4,1.4,7
		c-1.7-0.1-3.3-0.1-4.9-0.3c-2.9-0.4-5.8-0.4-8.6,0.1c-2.4,0.4-4.8,0.8-7.1,0.4c-3.1-0.5-6.1,0.1-9.6-0.4
		C271.1,66.3,271.2,65.6,271.5,64.9z M275.6,94.1c0.5,0.4,1,0.7,1.9,1.3C275.5,95.5,275.5,95.5,275.6,94.1z M279.5,99.8
		c-0.7-0.8-1.4-1.6-2.1-2.4c0.1-0.1,0.3-0.3,0.4-0.4c0.7,0.8,1.4,1.6,2.2,2.4C279.8,99.5,279.8,99.7,279.5,99.8z M285.8,100.4
		c-0.1-0.5-0.2-0.9-0.4-1.4c0.1,0,0.3-0.1,0.4-0.1c0.1,0.5,0.3,0.9,0.4,1.4C286,100.3,285.8,100.4,285.8,100.4z M287.4,102
		c-1-0.5-0.9-0.9,0.2-1.5C287.5,101.2,287.4,101.5,287.4,102z"/>
	<path class="st0" d="M83.2,36.3c0.1-4,0.7-8,1.1-12.1c0.1-1.3,0.2-2.5-0.8-4c-0.4,0.7-0.8,1.1-0.8,1.5c-0.3,2.9-0.4,5.8-0.6,8.7
		c-0.2,3.9-0.4,7.7-0.6,11.6c-0.2,3.8-0.3,7.6-0.4,11.4C80.5,49.7,80,46,80,42.3c0.1-6.4,0.7-12.8,1.1-19.2c0-0.8,0-1.7-0.1-2.7
		c-1.5,0.4-1.4,1.5-1.5,2.3c-0.4,4.3-0.7,8.6-0.9,13c-0.3,4.9-0.1,9.9,0.3,14.8c0.4,5.6,0.4,11.2,0.5,16.7c0.1,3.1,0,6.1,0,9.2
		c0,2.8-0.1,5.5-0.3,8.3c-0.1,2.9-0.4,5.8-0.5,8.7c-0.1,4.6-0.1,9.1-0.1,13.7c0,0.4,0.2,0.8,0.3,1.5c0.5-0.6,1-0.8,1-1.2
		c0.2-1.5,0.4-3,0.4-4.4c0.1-3.7,0-7.4,0-11.1c0-1.7,0.1-3.4,0.2-5.2c0-0.7,0.3-1.4,0.4-2.1c0.3,6,0.2,12,0.1,17.9
		c0,1.9-0.2,3.7,0.6,6c0.5-0.7,1-1,1.1-1.5c0.2-1,0.4-2.1,0.4-3.1c-0.1-4.7-0.2-9.4-0.4-14.1c-0.1-4.2-0.4-8.4-0.3-12.5
		c0.1-5.7,0.5-11.3,0.6-17C83,52.3,83,44.3,83.2,36.3z"/>
	<path class="st0" d="M244.3,78.8c0-3.1-0.2-6.3-0.2-9.3c-0.1-2-0.1-3.9-0.2-5.9c0-0.8,0-1.6,0-2.5c0-1.3,0-2.5-0.1-3.8
		c-0.1-1.6-0.3-3.2-0.5-4.8c-0.2-2.2-0.5-4.5-0.6-6.8c-0.2-5-0.2-10-0.2-14.9v-2.3c0-1.7,0.1-3.5,0.2-5.2c0-0.8,0.1-1.6,0.1-2.3
		v-0.3l-0.3-0.1c-2-0.9-10.2-0.8-12.8,0.2l-0.3,0.1l0.8,29c-3.3-2.2-7.1-3.6-9.9-3.6c-0.1,0-0.1,0-0.2,0c-2.8,0.1-6.6,0.3-10.1,1.5
		c-3.7,1.3-7.3,3.1-11.5,5.7c-3.4,2.2-5.9,5.1-7.2,8.4l-0.5,1.2c-1.4,3.4-2.8,7-3.1,10.9c-0.5,6.4-0.6,13.2,2.4,19.8
		c3,6.3,6.2,11,12.4,13.2c2,0.7,4.2,1.4,6.6,1.4c0,0,0,0,0.1,0c1,0,1.9,0,2.9-0.1c1,0,2.1-0.1,3.1-0.1c6.4,0,11.5-2,15.7-6.2
		c0,0,0.1-0.1,0.3-0.1l0.8,5.2l11.8-0.8l0.1-1c0-0.5,0.1-0.9,0.1-1.4c0-1.9,0-3.9,0-5.8v-5.4C244.4,88.2,244.4,83.4,244.3,78.8z
		 M229.8,52.3c0.3,0.2,0.6,0.4,0.9,0.6l0.7,0.4l0.9-0.7l-0.7-29.8c2.2-1.7,4.4-1.6,6.9-1.5h0.8c0.8,0,1.7,1.2,1.6,2.4v0.4
		c0,2.1,0,4.4,0,6.6v3.2c0,3.9,0.1,7.9,0.2,11.8c0.1,2.1,0.2,4.3,0.4,6.4c0.1,1.9,0.3,3.8,0.4,5.7c0.2,3.4,0.3,6.9,0.3,10.2
		c0,1.7,0.1,3.5,0.2,5.2c0.1,2.1,0.2,4.2,0.2,6.3l0.1,2.8c-0.3,0.3-0.5,0.7-0.5,1.2s0.1,1,0.4,1.3v19.6l-8.5,0.8l-1.1-7l-1.6,1.3
		c-0.7,0.5-1.2,1-1.8,1.5c-3.8,3.4-8.3,5.2-13.4,5.3c-0.7,0-1.4,0-2.1,0.1c-1.2,0-2.5,0.1-3.7,0c-6.8-0.1-12-2.9-15.4-8.2
		c-4-6.3-5.8-12.6-5.5-19.3c0.2-4,0.7-8.6,2.8-13.1c0.4-0.8,0.7-1.6,1-2.4s0.6-1.6,1-2.3c1.9-4.1,5.4-6.5,10-8.8
		c1-0.5,2.1-1,3.2-1.5c0.7-0.3,1.4-0.6,2.1-0.9c1.9-0.9,3.9-1.1,6-1.4c0.7-0.1,1.4-0.2,2.2-0.3c0.6-0.1,1.2-0.1,1.8-0.1
		c3.1,0,5.9,1.2,8.2,2.4"/>
	<path class="st0" d="M90.6,35.5c0-1.6,0-3.3,0-4.9c0-3-0.5-6,0.2-8.9c0.1-0.3-0.1-0.6-0.2-1c-0.2,0-0.4,0-0.6,0
		c-1.5,2.6-0.7,5.7-1.4,8.5c0-2.6,0-5.3,0-7.9c-1.4,1-1.5,2.2-1.5,3.5c0.3,6.8,0.1,13.6-0.2,20.4C86.8,50.6,87,56,87,61.4
		c0,7.1-0.2,14.2-0.3,21.3c-0.1,6.3,0,12.5-0.1,18.8c0,2.4-0.2,4.9-0.3,7.3c2.1,0.1,1-1.9,2.2-2.6c0,0.4-0.1,0.7,0,0.9
		c0.1,0.3,0.4,0.7,0.6,0.7c0.3,0,0.7-0.3,0.8-0.6c0.2-0.5,0.1-1,0.1-1.6c0-1.1,0-2.2,0.1-3.4c0.2-2.7,0.6-5.5,0.6-8.2
		c0.1-3.4-0.2-6.7-0.3-10.1c0-1.8,0.3-3.6,0.3-5.4c-0.1-6.1-0.2-12.1-0.2-18.2c0-2.9,0.4-5.8,0.4-8.7C91,46.3,90.7,40.9,90.6,35.5z
		 M89,36.1L89,36.1c0.1,0.5,0.1,1.1,0.1,1.6H89C89,37.2,89,36.7,89,36.1z M88.7,104.2c-0.1,0-0.2,0-0.2,0c0-1.2,0-2.4,0-3.6
		c0.1,0,0.3,0,0.4,0.1C88.8,101.8,88.7,103,88.7,104.2z M89.1,99.5c-0.2,0-0.3,0-0.5,0c0-0.9,0.1-1.8,0.1-2.7
		c-0.1-5.8-0.3-11.6-0.3-17.4c0-6.4,0.2-12.8,0.3-19.3c0-1.8-0.2-3.6-0.2-5.4c0-5,0.1-10.1,0.2-15.1c0.2,0,0.4,0,0.6,0
		c0,5.1,0,10.2,0,15.4c0,3.6-0.1,7.2-0.1,10.7c0,5.5-0.1,11,0,16.5c0,2.8,0.2,5.7,0.3,8.5C89.6,93.6,89.2,96.6,89.1,99.5z"/>
	<path class="st0" d="M48.9,33.9c-2.2,2.5-4.4,5-6.6,7.6c-0.4,0.5-0.7,1.2-0.6,1.8c0.1,1,1.2,0.8,1.8,0.8c1.3,0.1,2.5-0.1,3.8-0.1
		c1.4,0,2.8,0.2,4.2,0.2c1.9,0,3.8-0.1,5.7-0.2c1.8-0.1,3.5-0.1,5.3-0.3c0.6-0.1,1.2-0.7,2.1-1.2c-4.9-3.8-9.3-7.3-13.9-10.9
		C50.1,32.5,49.5,33.2,48.9,33.9z M46.1,41.6c0.2-0.9,0.7-1.1,1.5-0.9c0.7,0.2,1.5,0.3,2.3,0.4c0,0.1,0.1,0.2,0.1,0.2
		C48.6,41.5,47.4,41.5,46.1,41.6z M58,41.1c-1.5,0.1-2.5,0.2-3.4,0.3c-0.9-3.3-2.3-4.9-4.5-5.2c0.5-0.4,1-0.8,1.6-1.2
		C53.9,36.6,55.2,39.2,58,41.1z"/>
	<path class="st0" d="M86.6,21.2c-1.6,0.5-1.5,1.5-1.5,2.4c0,4.2,0.1,8.4-0.1,12.6c-0.1,5.1-0.5,10.2-0.7,15.2
		c-0.1,2.9,0.1,5.8,0,8.8C84,69.6,83.8,79,83.4,88.4c-0.1,5.6-0.1,11.2-0.1,16.8c0,1.1,0.3,2.2,0.5,3.4c1.2-0.2,1.3-0.9,1.3-1.7
		c0-2.7,0-5.5,0-8.2s-0.1-5.4,0-8c0.3-7.2,0.7-14.5,0.9-21.7c0.2-6.4,0.1-12.9,0.1-19.3c0-2.5,0.3-4.9,0.3-7.4
		c0.1-5.5,0.1-10.9,0.2-16.4C86.6,24.4,86.6,22.9,86.6,21.2z"/>
	<path class="st0" d="M257.6,19.9c-1.9,0.5-4,0.1-5.7,1.3c-0.1,0.3-0.2,0.6-0.2,0.8c0.2,0.8,0.8,1.6,0.6,2.3
		c-0.2,0.9-0.3,1.5,0.3,2.3c0.2,0.3,0.2,0.7,0.2,1.1c0.1,1.6,0.1,3.2,0.2,4.7c0.1,1.5,0.5,3,0.4,4.4c-0.1,1.1,0.2,1.8,0.9,2.8
		c0.8-1.8,1.3-3.5,2.3-4.8c0.9-1.3,1.9-2.5,2-4.2c0-0.9,1.6-1.1,1-2.3c3-1.9,2.7-5.4,4.1-8.3C261.4,20.4,259.6,19.4,257.6,19.9z"/>
	<path class="st0" d="M34.7,22.2c-0.3,0.6-0.5,1.1-0.7,1.5c-0.4-0.7-0.7-1.2-1-1.8c-0.2,0-0.4,0.1-0.6,0.1
		c-0.1,4.2-0.3,8.4-0.4,12.6c0,0.5,0,1.1,0.3,1.5c0.2,0.3,0.7,0.5,1.1,0.7c0.2-4.2,0.3-8.2,0.5-12.1c0.5,0.9,0.6,1.7,0.6,2.6
		c0.1,1.3,0.1,2.7,0.1,4c0,0.8,0.2,1.5,1.4,1.3c0-2.8,0-5.7,0-8.5C36,23.4,35.7,22.6,34.7,22.2z"/>
	<path class="st0" d="M23.4,24.4c0.2-1.8-0.6-2.4-2.1-2.4c-0.4,0-0.9-0.2-1.3-0.2c-2.9,0.1-5.8,0.1-8.7,0.3c-0.5,0-0.9,0.2-1.6,0.4
		C14.1,26.7,18.8,25.1,23.4,24.4z"/>
	<path class="st0" d="M21.6,36.4c-1.1,0.1-2.2,0-3.3,0c-2,0-4,0-6,0c-0.2,1.2-0.4,2.1-0.5,3c2.3,0.8,10.7,0.2,10.9-0.7
		c-0.2-0.3-0.4-0.6-0.5-0.9c0.4-0.1,0.8-0.2,1.2-0.3C23.1,36.5,22.5,36.4,21.6,36.4z"/>
	<path class="st0" d="M11.7,43.5c0,0.2,0,0.4,0.1,0.5c1.6,0.7,3.4,0.4,5.1,0.3c1.8-0.1,3.6-0.1,5.2-0.2c0.1-0.7,0-1.2,0.2-1.7
		c0.4-0.9-0.1-1.4-0.8-1.4c-3.4-0.3-6.8-0.5-10.6,0.5c1.5,1.3,3,0.6,4.2,1.1C14,42.9,12.9,43.2,11.7,43.5z"/>
	<path class="st0" d="M11.6,33.9c0.2,1.2,0.9,1.3,1.6,1.2c2.2,0,4.3-0.1,6.5-0.1c0.9,0,1.8,0,2.8,0c-0.2-1.1-0.4-1.9-0.6-2.7
		c-3.5-1.2-8.3-1.3-10.1-0.1c1.2,1,2.6,0.4,3.9,0.5c1.2,0.2,2.5,0.1,3.7,0.2c0,0.1,0,0.2,0,0.3C16.8,33.5,14.3,33.7,11.6,33.9z"/>
	<path class="st0" d="M31.1,23.7c0-0.8,0.1-1.7-1.2-1.8c0,5.3,0,10.5,0,15.8c0,0.4,0.4,0.8,0.7,1.2c0.2-0.1,0.3-0.1,0.5-0.2
		c0.2-1.8,0.4-3.6,0.3-5.4C31,30.2,31.2,26.9,31.1,23.7z"/>
	<path class="st0" d="M11.8,59.6c0.7,0.2,1.2,0.5,1.8,0.4c2.6-0.2,5.3-0.5,7.9-0.8c0.8-0.1,1.6-0.4,1.7-1.8c-0.6-0.1-1.3-0.4-2-0.3
		c-1.9,0.1-3.8,0.2-5.7,0.4c-1.1,0.1-2.2,0.3-3.4,0.4C12,58.5,11.9,59,11.8,59.6z"/>
	<path class="st0" d="M20.4,79.3L20.4,79.3c-1.9,0.1-3.8,0.1-5.8,0.2c-0.7,0-1.4-0.1-1.5,0.9c0,0.7,0.8,1.6,1.6,1.5
		c2.8-0.2,5.7-0.4,8.7-0.7c-0.3-0.7-0.5-1.3-0.7-1.9C21.8,79.3,21.1,79.3,20.4,79.3z"/>
	<path class="st0" d="M14.5,66.3c2.3-0.3,4.5-0.5,6.8-0.8c0.6-0.1,1.2-0.2,1.9-0.3c-0.9-1.6-0.9-1.6-2-1.6c-2.3,0-4.6,0.1-6.9,0.2
		c-0.7,0-1.4,0.4-2.1,0.6C12.4,66.2,13.3,66.4,14.5,66.3z"/>
	<path class="st0" d="M22.4,91.9c-2.2,0.1-4.5,0.1-6.7,0.2c-1.1,0-2.1,0.2-3.2,0.3c0.2,1.3,0.8,1.6,1.7,1.5c3-0.1,5.9-0.1,8.9-0.2
		c0.4,0,0.8-0.2,1.2-0.4C24.1,92.1,23.4,91.8,22.4,91.9z"/>
	<path class="st0" d="M22.1,77.6c0.4-0.1,0.8-0.5,1.2-0.7c-0.4-0.4-0.8-1-1.2-1c-2.8-0.1-5.6,0-8.4,0c-0.1,1.7,0.8,2.5,2.4,2.4
		c1.3-0.1,2.6-0.2,4-0.4c0.1,0.6,0.2,1.1,0.3,1.6l0,0C20.3,78,21.1,77.7,22.1,77.6z"/>
	<path class="st0" d="M17.5,70.9c-0.9,0-1.9,0.2-2.8,0.5c-0.3,0.1-0.8,0.5-0.8,0.8c0,0.4,0.2,0.9,0.5,1.1c0.5,0.2,1.1,0.3,1.7,0.3
		s1.1-0.2,1.7-0.3c1.6-0.2,3.3-0.4,5-0.6c-0.2-1.2-0.6-1.7-1.6-1.7C20,71,18.8,70.9,17.5,70.9z"/>
	<path class="st0" d="M14.8,70.1c2.3-0.2,4.5-0.4,6.8-0.7c0.4-0.1,0.9-0.3,1.5-0.5c-0.3-0.4-0.5-0.7-0.7-0.8
		c-0.2-0.2-0.5-0.3-0.8-0.3c-2.9,0.1-5.7,0.2-8.9,0.3C13.3,70.2,13.3,70.2,14.8,70.1z"/>
	<path class="st0" d="M21.7,95.2c-2.8,0.2-5.6,0.3-8.4,0.5c-0.4,0-0.7,0.3-1.1,0.5c0.2,0.3,0.2,0.4,0.3,0.5c1.2,0.4,2.3,0.6,3.6,0.5
		c2.4-0.3,4.9-0.2,7.5-0.3C23.3,95.5,22.7,95.1,21.7,95.2z"/>
	<path class="st0" d="M23.1,88.7c-2.7-0.6-5.4-0.1-8.1,0.1c-0.4,0-0.8,0.4-1.2,0.6c0.4,0.4,0.7,1,1.1,1.1c0.6,0.2,1.3,0,2,0
		c1.9-0.1,3.8-0.2,5.7-0.3c0.7,0,1.3-0.1,2-0.1C24.5,89,23.9,88.9,23.1,88.7z"/>
	<path class="st0" d="M13.3,51.4c3-0.1,5.9-0.1,8.9-0.2c0.4,0,0.8-0.2,1.2-0.4c-0.2-1.2-1-1.5-2-1.4c-2.2,0.1-4.5,0.1-6.7,0.2
		c-1.1,0-2.1,0.2-3.2,0.3C11.8,51.2,12.3,51.4,13.3,51.4z"/>
	<path class="st0" d="M12.7,48c0.6,0.2,1.3,0,2,0c1.9-0.1,3.8-0.2,5.7-0.3c0.7,0,1.3-0.1,2-0.1c0-1.1-0.6-1.2-1.4-1.4
		c-2.7-0.6-5.4-0.1-8.1,0.1c-0.4,0-0.8,0.4-1.2,0.6C11.9,47.3,12.2,47.9,12.7,48z"/>
	<path class="st0" d="M20.4,60.2c-0.7,0.2-1.5,0.2-2.2,0.2c-1.5,0.2-2.9,0.3-4.4,0.6c-0.3,0-0.6,0.4-0.7,0.7c0,0.3,0.2,0.7,0.5,0.9
		s0.7,0.3,1,0.2c1.6-0.2,3.2-0.4,4.8-0.6c1.1-0.1,2.1-0.3,3.3-0.5C22.3,60.4,21.7,59.9,20.4,60.2z"/>
	<path class="st0" d="M21.5,100.8c0.8-0.1,1.6-0.4,1.7-1.8c-0.6-0.1-1.3-0.4-2-0.3c-1.9,0.1-3.8,0.2-5.7,0.4
		c-1.1,0.1-2.2,0.3-3.4,0.4c-0.1,0.6-0.2,1-0.3,1.6c0.7,0.2,1.2,0.5,1.8,0.4C16.2,101.4,18.8,101.1,21.5,100.8z"/>
	<path class="st0" d="M21.2,105.2c-2.3,0-4.6,0.1-6.9,0.2c-0.7,0-1.4,0.4-2.1,0.6c0.2,1.8,1.1,2,2.3,1.8c2.3-0.3,4.5-0.5,6.8-0.8
		c0.6-0.1,1.2-0.2,1.9-0.3C22.3,105.3,22.3,105.2,21.2,105.2z"/>
	<path class="st0" d="M20.4,101.8c-0.7,0.2-1.5,0.2-2.2,0.2c-1.5,0.2-2.9,0.3-4.4,0.6c-0.3,0-0.6,0.4-0.7,0.7c0,0.3,0.2,0.7,0.5,0.9
		c0.3,0.2,0.7,0.3,1,0.2c1.6-0.2,3.2-0.4,4.8-0.6c1.1-0.1,2.1-0.3,3.3-0.5C22.3,102,21.7,101.4,20.4,101.8z"/>
	<path class="st0" d="M13.3,86c0.3,1.8,1.5,1.5,2.4,1.5c1.5-0.1,2.9-0.2,4.4-0.4c1.4-0.2,2.7-0.4,4.3-0.6c-0.2-0.5-0.3-0.8-0.5-0.9
		c-0.2-0.2-0.5-0.3-0.8-0.3C19.8,85.4,16.5,85.4,13.3,86z"/>
	<path class="st0" d="M11.3,29.1c1.5,0.7,8.1,1.4,10.5,1.1c0.4-0.1,0.7-0.4,1.2-0.8c-0.6-0.2-1-0.5-1.4-0.5c-3.1,0-6.2,0.1-9.3-0.8
		C11.6,27.9,11.4,28.5,11.3,29.1z"/>
	<path class="st0" d="M12.5,55.3c0.7,0.2,1.4,0.6,2.2,0.7c1.5,0.1,3.1,0.2,4.6,0.2c0.9,0,1.8-0.1,2.8-0.1c-0.1-1.5-1-1.6-1.9-1.6
		c-1.8,0-3.6,0-5.3,0c-0.7,0-1.4,0.1-2.1,0.1C12.6,54.8,12.6,55.1,12.5,55.3z"/>
	<path class="st0" d="M22.9,84.2c-1-1.6-1-1.7-2.1-1.6c-2.3,0.1-4.5,0.3-7.3,0.5c0.6,0.6,0.9,1.1,1.2,1.1
		C17.3,84.3,20,84.2,22.9,84.2z"/>
	<path class="st0" d="M22.9,53.4c-1-1.6-1-1.7-2.1-1.6c-2.3,0.1-4.5,0.3-7.3,0.5c0.6,0.6,0.9,1.1,1.2,1.1
		C17.3,53.5,20,53.4,22.9,53.4z"/>
	<path class="st0" d="M22.3,26.9c-0.5-1.1-1.4-1.2-2.4-1.1c-1.2,0.1-2.4,0.1-3.5,0.2c-1.6,0.2-3.2,0-4.7,0.9
		C13.3,27.9,16.2,27.9,22.3,26.9z"/>
	<path class="st0" d="M36.6,22.3c0,2.3,0,4.5,0,6.6c0,0.3,0.6,0.6,1.2,1.2c0-1.8,0-3,0-4.3C37.8,24.6,38.4,23.2,36.6,22.3z"/>
	<path class="st0" d="M57.1,61c0.7-0.9,1.2-1.4,1.6-2.1c0.1-0.2,0-0.8-0.2-1s-0.7-0.2-1-0.1C56.3,58.2,56.1,59.2,57.1,61z"/>
	<path class="st0" d="M39.1,22.3c-1.1,2.5-1,3.4,0.8,4.6C39.4,25.1,40.5,23.6,39.1,22.3z"/>
	<path class="st0" d="M51.8,105.1c0.1,0,0.1-0.7,0.2-1.2c-1.3,0-2.4,0-3.5,0c0.1-1.2-0.4-2-1.7-2.3c-0.2,0.6-0.5,1.1-0.6,1.7
		c-0.1,1.3,0.5,1.6,1.9,1c0.4,0.3,0.8,0.7,1.3,0.8C50.1,105.2,51,105.2,51.8,105.1z"/>
	<path class="st0" d="M50.7,62.9c0.9-0.2,1.7-0.5,2.6-0.7c-0.3-1-0.7-1.7-1.7-1.2C51,61.3,49.9,61.6,50.7,62.9z"/>
	<path class="st0" d="M55.1,107.5c0.2,0.5,0.7,1,1.2,1.1c0.2,0.1,1-0.6,1-0.9c0-0.4-0.6-0.8-1.1-1.5C55.6,106.8,55,107.3,55.1,107.5
		z"/>
	<path class="st0" d="M51.4,107.8c0.6,0.6,1.3,1,2.1,0.3c0.7-0.6,0.6-1.3-0.3-2.1C52.6,106.6,52,107.2,51.4,107.8z"/>
	<path class="st0" d="M51.4,107.8L51.4,107.8L51.4,107.8L51.4,107.8z"/>
	<path class="st0" d="M57.1,62.2c-0.8,0.6-0.8,1.3-0.1,2.2c0.6-0.5,1.2-0.9,1.9-1.4C58.3,62.1,57.8,61.7,57.1,62.2z"/>
	<path class="st0" d="M53.2,82.2c-0.2-0.1-0.4-0.3-0.7-0.4c-0.5,0.4-1,0.8-1.8,1.6c0-0.3,0.1-0.6,0.1-0.9c-0.2-0.1-0.4-0.2-0.6-0.4
		c-0.4,0.4-1,0.7-1.1,1.1c-0.1,0.8,0.5,1.1,1.5,1.2c0-0.4,0.1-0.7,0.1-1c1.1,0.2,1.8,0.5,2,0.3C53.1,83.4,53.1,82.7,53.2,82.2z"/>
	<path class="st0" d="M51.4,107.8C51.4,107.8,51.4,107.7,51.4,107.8L51.4,107.8L51.4,107.8z"/>
	<path class="st0" d="M49.3,107.4c-0.8,0.9,0,1.4,0.7,2c0.3-0.4,0.5-0.7,0.7-1s0.5-0.5,0.7-0.7C50.7,107.4,50.1,106.5,49.3,107.4z"
		/>
	<path class="st0" d="M52.9,86.5c-0.7,0.5-0.4,1.2-0.1,1.8c0.1,0.1,0.2,0.2,0.5,0.5c0.9-0.5,1.3-1.1,0.7-2
		C53.8,86.5,53.1,86.3,52.9,86.5z"/>
	<path class="st0" d="M57.6,71.3c-0.1,0.7-0.2,1.5-0.3,2.4c1.4,0.2,1.6-0.4,1.6-1.1C58.9,71.8,58.8,71.1,57.6,71.3z"/>
	<path class="st0" d="M45.4,81.8c0.1,0.5,0.4,0.9,0.8,1.6c0.5-0.5,0.9-0.8,0.8-1c-0.2-0.5-0.5-0.9-0.8-1.4
		C45.9,81.3,45.4,81.6,45.4,81.8z"/>
	<path class="st0" d="M57.7,55.9c0.1,0.1,0.8,0,0.9-0.2c0.6-1-0.1-1.5-0.9-2.4C57.3,54.4,56.9,55.2,57.7,55.9z"/>
	<path class="st0" d="M59.1,90.7c-0.1-0.2-0.9-0.2-0.9-0.1c-0.5,0.8-0.4,1.5,0.5,2.1C59.4,92.1,59.6,91.4,59.1,90.7z"/>
	<path class="st0" d="M47.3,107.2c-0.9-0.1-1.3,0.4-1.2,1.3c0.7,0.6,1.4,0.4,1.7-0.4C47.9,107.9,47.5,107.2,47.3,107.2z"/>
	<path class="st0" d="M57.8,81.5c0.1,0.4,0.4,0.8,0.8,1.1c0.1,0.1,0.6-0.4,1.1-0.8c-0.5-0.5-0.9-0.9-1.2-1.3
		C58.2,80.9,57.7,81.3,57.8,81.5z"/>
	<path class="st0" d="M45.6,90.1c-0.4,0.9,0.2,1.2,1.1,1.6c0.2-0.6,0.5-1.3,0.7-1.9C46.6,89.4,46,89.1,45.6,90.1z"/>
	<path class="st0" d="M51.9,64.8c-0.4,1.2-0.3,1.9,0.8,2.4C53.5,66.1,53.5,66.1,51.9,64.8z"/>
	<path class="st0" d="M47.7,99.3c-0.4-0.4-0.7-0.8-1-0.9c-0.6-0.2-1,0.2-0.9,0.8c0.1,0.4,0.5,0.8,0.7,1.1
		C46.9,100,47.2,99.8,47.7,99.3z"/>
	<path class="st0" d="M46.1,79.3c0.1-1,0.1-1.6,0.2-2.1c-0.2-0.1-0.4-0.2-0.6-0.4c-0.4,0.4-0.8,0.9-1.2,1.3
		C44.9,78.5,45.3,78.8,46.1,79.3z"/>
	<path class="st0" d="M57,91.2c-1.1,0.7-1.5,1.5-0.6,2.8C57.3,93,57.7,92.3,57,91.2z"/>
	<path class="st0" d="M46.2,70c0.2-0.8,0.3-1.4,0.4-2.2C44.8,68.6,44.7,68.9,46.2,70z"/>
	<path class="st0" d="M55.6,81.1c-0.1,0.3,0.4,0.7,0.6,1c0.3-0.3,0.7-0.5,0.8-0.8c0.1-0.4-0.1-0.8-0.2-1.8
		C56.3,80.3,55.8,80.7,55.6,81.1z"/>
	<path class="st0" d="M56.3,88.9c0.2-0.2,0.6-0.4,0.6-0.5c0-0.4-0.3-0.9-0.5-1.6c-0.5,0.5-0.9,0.8-0.9,1
		C55.6,88.2,56,88.5,56.3,88.9z"/>
	<path class="st0" d="M46.8,95.4c0.1-0.3,0.1-0.5,0.3-1.2c-0.8,0.2-1.5,0.2-1.6,0.5c-0.4,0.7,0.1,1.2,1,1.4
		C46.5,95.9,46.7,95.7,46.8,95.4z"/>
	<path class="st0" d="M51.9,75.1c0.2,0.3,0.5,0.9,0.7,0.9c0.4,0,0.8-0.4,1.2-0.6c0.1-0.2,0.2-0.4,0.3-0.7c-0.3-0.1-0.7-0.4-1-0.3
		C52.7,74.4,52.3,74.8,51.9,75.1z"/>
	<path class="st0" d="M45.4,86.6c0.3,0.3,0.5,0.8,0.8,0.8s0.7-0.4,1.2-0.7c-0.5-0.4-0.8-0.8-1.1-0.8C46,86,45.7,86.4,45.4,86.6z"/>
	<path class="st0" d="M58,68c-0.1-1-0.2-1.8-0.3-3.1C56.7,66.9,56.7,66.9,58,68z"/>
	<path class="st0" d="M50.4,101.7c0.4-1.1,0.6-1.9-0.6-2.3C49.3,100.4,49.2,101.1,50.4,101.7z"/>
	<path class="st0" d="M40.3,22.1c0.1,1.2,0.2,2,1.4,2.2C42,23.2,41.7,22.5,40.3,22.1z"/>
	<path class="st0" d="M54.2,79.3c-0.2-0.4-0.5-0.7-0.9-0.9c-0.1-0.1-0.8,0.5-0.7,0.5c0.2,0.4,0.5,0.8,0.8,1.3
		C53.8,79.8,54.2,79.4,54.2,79.3z"/>
	<path class="st0" d="M55.5,76.2c0,0.2,0.5,0.6,0.7,0.6c0.9-0.1,0.9-0.8,0.7-1.6C55.9,74.9,55.6,75.5,55.5,76.2z"/>
	<path class="st0" d="M58.2,87.9c1.1-0.5,0.6-1.3,0.4-2.1C57.6,86.4,57.1,87,58.2,87.9z"/>
	<path class="st0" d="M45.9,66c0.9-0.7,1-1.3,0.2-2.1C45.3,64.6,44.8,65.2,45.9,66z"/>
	<path class="st0" d="M56,99.2c-1.6,1-1.7,1.2-0.6,2.2C55.6,100.8,55.7,100.2,56,99.2z"/>
	<path class="st0" d="M51.8,100.3c-0.5,0.6-0.4,1.2,0.5,1.7c0.2-0.7,1-1.1,0.3-1.9C52.4,100.1,51.9,100.2,51.8,100.3z"/>
	<path class="st0" d="M46.4,61.7c-0.1-0.7-0.3-1.2-0.4-2C44.8,61.2,44.9,61.5,46.4,61.7z"/>
	<path class="st0" d="M55.7,70.1c0-0.2-0.4-0.6-0.6-0.6c-0.2,0-0.7,0.3-0.7,0.5c0,0.4,0.3,0.7,0.6,1.3
		C55.3,70.8,55.6,70.5,55.7,70.1z"/>
	<path class="st0" d="M49.3,52.3c0.5,0.3,0.9,0.6,1.4,0.8c0.1-0.3,0.4-0.8,0.4-0.9c-0.4-0.3-0.9-0.5-1.4-0.8
		C49.5,51.8,49.4,52,49.3,52.3z"/>
	<path class="st0" d="M52.5,54.2c-0.1,0.4-0.1,0.9-0.2,1.3c0.2,0.1,0.4,0.1,0.5,0.2c0.2-0.3,0.6-0.7,0.7-1c0.1-0.2-0.2-0.6-0.4-0.8
		C53,53.9,52.6,54,52.5,54.2z"/>
	<path class="st0" d="M48.2,53.7c0,0.6,0,1.1,0,1.6c0.2,0,0.4,0.1,0.5,0.1c0.5-0.5,1.1-0.9,0.2-1.7C48.7,53.6,48.5,53.7,48.2,53.7z"
		/>
	<path class="st0" d="M53.1,58.9c0.3,0.8,0.5,1.3,0.8,1.7c0,0,0.6-0.1,0.7-0.3C54.9,59.6,54.6,59.1,53.1,58.9z"/>
	<path class="st0" d="M46.9,53.2c0.1-0.1-0.3-0.4-0.4-0.6c-0.3,0.3-0.7,0.6-1,1c-0.1,0.1,0.2,0.4,0.5,0.9
		C46.4,54,46.7,53.6,46.9,53.2z"/>
	<path class="st0" d="M59,106.2c0.2-0.9,0.3-1.4,0.5-2.3C58.1,104.5,57.9,105.1,59,106.2z"/>
	<path class="st0" d="M48.7,77.2c0-0.9,0-1.5,0-2.7C47.6,75.7,47.6,75.7,48.7,77.2z"/>
	<path class="st0" d="M50.4,94.7c0.3-0.9,0.4-1.5,0.7-2.3C49.6,93.2,49.6,93.2,50.4,94.7z"/>
	<path class="st0" d="M51.4,91.2c0.9-0.2,1.5-0.5,1.3-2.1C51.8,89.8,50.9,89.9,51.4,91.2z"/>
	<path class="st0" d="M54.9,97.3c0.1,0.2,0.6,0.3,0.7,0.2c0.8-0.5,0.4-1.1,0-1.7C54.8,96.1,54.5,96.6,54.9,97.3z"/>
	<path class="st0" d="M45.1,74.3c0.1,0.1,0.2,0.1,0.5,0.2c0.2-0.5,0.3-1,0.4-1.5C45,73.1,44.7,73.6,45.1,74.3z"/>
	<path class="st0" d="M58.2,101.5c0,0.9,0,1.4,0,2.3C59.2,102.9,59.5,102.4,58.2,101.5z"/>
	<path class="st0" d="M46.2,58c0.2-0.4,0.4-0.9,0.7-1.5c-1,0.1-1.6,0.3-1.4,1.1C45.6,57.8,46,57.8,46.2,58z"/>
	<path class="st0" d="M48.6,68.5c0.1,0.1,0.5,0,0.5-0.2c0.4-0.6,0.1-1.1-0.7-1.3C48,67.7,48,68.2,48.6,68.5z"/>
	<path class="st0" d="M58.7,79c0-0.6,0-1.2,0-2C57.3,77.9,57.9,78.4,58.7,79z"/>
	<path class="st0" d="M55.2,57.3c0.2-0.9,0.4-1.4,0.5-2.2C54.5,55.5,54,55.9,55.2,57.3z"/>
	<path class="st0" d="M50.8,71.9c0.8,0.1,1.4,0,1-1.4c-0.5,0.4-0.9,0.6-1.3,0.9C50.6,71.6,50.7,71.7,50.8,71.9z"/>
	<path class="st0" d="M48.6,80.1c-0.5,0.7-0.8,1.1-1.1,1.5C48.9,81.9,48.9,81.9,48.6,80.1z"/>
	<path class="st0" d="M51.8,58.9c0.3-0.2,0.7-0.4,1-0.6c-0.2-0.2-0.3-0.4-0.5-0.7c-0.3,0.2-0.6,0.5-0.9,0.7
		C51.6,58.6,51.7,58.8,51.8,58.9z"/>
	<path class="st0" d="M52.1,52c0.2,0.2,0.4,0.3,0.6,0.5c0.3-0.3,0.5-0.7,0.8-1c-0.2-0.2-0.4-0.3-0.6-0.5
		C52.7,51.3,52.4,51.7,52.1,52z"/>
	<path class="st0" d="M54.3,64.3c0.1,0.2,0.4,0.3,0.8,0.5c0-0.7,0-1.2,0-1.9C54.1,63.1,53.9,63.5,54.3,64.3z"/>
	<path class="st0" d="M49.1,88.8c0.2,1,0.6,1.3,1.8,1C50.4,88.8,50.1,88.2,49.1,88.8z"/>
	<path class="st0" d="M47.5,92.6c0,0.1,0.5,0.4,0.6,0.4c0.3-0.2,0.4-0.5,0.8-0.9c-0.4-0.1-0.7-0.3-0.8-0.3
		C47.8,92,47.6,92.3,47.5,92.6z"/>
	<path class="st0" d="M53.5,92c-0.3,0.4-0.7,0.8-1.1,1.3C53.8,93.7,53.9,93.1,53.5,92z"/>
	<path class="st0" d="M49.4,77.7c0,0.2,0.4,0.5,0.5,0.5c0.3-0.1,0.6-0.4,0.7-0.6c0-0.2-0.4-0.5-0.7-0.9
		C49.6,77.1,49.4,77.4,49.4,77.7z"/>
	<path class="st0" d="M55.4,51.8c0,0.1,0.4,0.6,0.5,0.6c0.3-0.1,0.6-0.3,0.7-0.6c0.1-0.1-0.2-0.4-0.4-0.9
		C55.8,51.3,55.5,51.5,55.4,51.8z"/>
	<path class="st0" d="M56.7,86.2c0.2-1.2,0-1.6-1.2-1.5C55.9,85.2,56.2,85.6,56.7,86.2z"/>
	<path class="st0" d="M48.5,59.3c0.2-0.2,0.6-0.5,0.6-0.7s-0.4-0.5-0.7-0.9c-0.2,0.5-0.4,0.8-0.4,1.1C48,58.9,48.4,59.1,48.5,59.3z"
		/>
	<path class="st0" d="M57.9,94.8c0,0.8,0,1.2,0,1.7c0,0,0.5,0.1,0.6,0C59,96,59,95.5,57.9,94.8z"/>
	<path class="st0" d="M52.4,69.5c0-0.2-0.3-0.4-0.5-0.8c-0.2,0.5-0.5,0.7-0.4,0.9c0,0.2,0.4,0.3,0.6,0.3
		C52.1,69.9,52.4,69.6,52.4,69.5z"/>
	<path class="st0" d="M59.1,106.6c-0.2,0.4-0.3,0.7-0.5,1.1c0.1,0.1,0.2,0.2,0.4,0.3c0.2-0.2,0.5-0.3,0.6-0.5
		c0.1-0.3-0.1-0.6-0.1-0.9C59.3,106.6,59.2,106.6,59.1,106.6z"/>
	<path class="st0" d="M58.8,50.9c-0.2-0.1-0.3-0.2-0.5-0.3c-0.2,0.3-0.5,0.7-0.7,1c0.2,0.1,0.4,0.3,0.6,0.4
		C58.5,51.6,58.7,51.3,58.8,50.9z"/>
	<path class="st0" d="M48.4,65.7c0.2,0.1,0.5,0.4,0.6,0.4c0.2,0,0.4-0.4,0.7-0.6c-0.3-0.2-0.5-0.4-0.8-0.5
		C48.8,65.1,48.6,65.4,48.4,65.7z"/>
	<path class="st0" d="M56.2,105.5c0.4,0.2,0.6,0.3,0.8,0.5c0.2-0.4,0.4-0.7,0.5-1.1c-0.1-0.1-0.2-0.1-0.3-0.2
		C57,104.9,56.6,105.2,56.2,105.5z"/>
	<path class="st0" d="M50.3,96c-0.4,0.5-0.7,0.9-1,1.2C50.5,97.5,50.8,97.1,50.3,96z"/>
	<path class="st0" d="M48.4,73.8c0.3-0.3,0.5-0.5,0.5-0.7s-0.2-0.4-0.4-0.7c-0.3,0.2-0.6,0.4-0.7,0.6C47.7,73.1,48.1,73.4,48.4,73.8
		z"/>
	<path class="st0" d="M55.9,103.1c0.3,0.3,0.5,0.6,0.7,0.5c0.2,0,0.5-0.3,0.5-0.5s-0.3-0.5-0.5-0.5S56.2,102.9,55.9,103.1z"/>
	<path class="st0" d="M58.4,98.9c-0.2,0.2-0.5,0.4-0.7,0.6c0,0,0.2,0.5,0.3,0.5c0.3-0.1,0.5-0.3,0.9-0.5
		C58.6,99.2,58.5,99,58.4,98.9z"/>
	<path class="st0" d="M48.6,63.1c0.1,0,0.2-0.3,0.4-0.6c-0.3-0.2-0.5-0.3-0.8-0.4c-0.1,0-0.3,0.4-0.3,0.5
		C48.1,62.9,48.4,63,48.6,63.1z"/>
	<path class="st0" d="M55.5,49.5c-0.2-0.1-0.4,0.1-0.7,0.2c-0.1,0.1-0.1,0.3-0.2,0.4c0.2,0.1,0.4,0.2,0.6,0.2c0.3,0,0.5-0.2,0.8-0.2
		C55.8,49.9,55.7,49.6,55.5,49.5z"/>
	<path class="st0" d="M53.1,103.9c0,0.3,0.1,0.6,0.2,0.9c0.2-0.1,0.4-0.2,0.6-0.3c0.1-0.2,0.3-0.5,0.3-0.5c-0.2-0.2-0.5-0.4-0.8-0.5
		C53.3,103.4,53.1,103.7,53.1,103.9z"/>
	<path class="st0" d="M53.2,72.7c0.2,0.2,0.3,0.4,0.6,0.5c0.1,0,0.3-0.2,0.6-0.3c-0.3-0.2-0.4-0.4-0.6-0.4
		C53.5,72.5,53.4,72.7,53.2,72.7z"/>
	<path class="st0" d="M89,36.1L89,36.1c0,0.6,0,1.1,0,1.6h0.1C89,37.2,89,36.7,89,36.1z"/>
	<path class="st0" d="M232.4,85.4L232.4,85.4c-0.1-1.5-0.1-3-0.2-4.4c-0.2-3.1-0.3-6.1-0.3-9c0-0.9-0.1-1.8-0.1-2.7
		c-0.2-2.1-0.3-4.1,0.4-6c0.2-0.6,0-1.4-0.4-1.8c-0.8-1.1-1.7-2.1-2.7-3.1c-3.5-3.5-7.9-4.5-11.3-5c-6-0.8-10.8,1.4-14.4,6.6
		c-1.8,2.5-2.7,5.4-3.6,8.3l-0.1,0.4c-1.6,5.1-1,10-0.2,14.6c0.5,2.4,1.1,4.4,2,6c1.2,2.2,3.1,5.5,6,8.2c0.2,0.2,0.3,0.3,0.5,0.5
		c0.4,0.4,0.8,0.8,1.3,1.2c3,2.1,6.6,2.6,9.1,2.7c0.3,0,0.7,0,1,0c5.1,0,9.3-2.4,12.1-7c0.5-0.9,0.9-2,0.9-3.2
		c0.1-1.8,0.1-3.6,0.1-5C232.4,86.3,232.4,85.8,232.4,85.4z M229.5,94.6c-3.1,4.2-7.2,5.9-12.1,5.2c-1-0.1-2.1-0.4-3.1-0.7l-0.8-0.2
		c-3.9-0.9-5.9-3.9-8.2-6.9l-0.4-0.5c-2.5-3.5-3.9-7.6-4.3-12.9c-0.5-5.9,0.8-11.4,3.8-16.8c1.7-3,4.4-5.1,8.4-6.6
		c0.2-0.1,0.5-0.1,0.8-0.1c4.8,0,8.7,1,11.9,3.1c1,0.6,2.2,1.5,3.2,2.6c0.9,1.1,1.8,2.2,1.4,4c-0.3,1.2-0.2,2.6-0.1,3.8
		c0,0.5,0.1,1.1,0.1,1.6v0.4h0.1l0.1,4.9c0.1,5.2,0.2,10.7,0.2,16C230.5,92.6,230.1,93.8,229.5,94.6z"/>
	<path class="st0" d="M440.8,50.8c0-1.6-0.1-1.8-1.7-1.8c-2.2-0.1-4.5-0.1-6.7-0.1c-0.5,0-1,0.1-1.6,0.1c-1.1,0.1-1.6,0.5-1.6,1.7
		c0,1-0.3,2-0.4,3c0.2,0.6,0.5,1.3,0.5,2c0.1,2.3,0.1,4.6,0.2,7c0,8.2,0.1,16.4,0,24.6c0,2.1,0,4.3-1.5,6.2c-2.9,3.9-9.8,8-16.2,5.9
		c-1.7-0.6-3.7-0.5-4.4-2.8c-2.2-1.5-2.8-4-3.3-6.3c-0.7-3.1-1.1-6.3-0.7-9.5c0.5-4-0.2-8,0.7-12c0-0.2-0.1-0.4-0.1-0.6
		c-0.2-0.9-0.5-1.9-0.5-2.8c-0.1-4.7-0.1-9.5-0.2-14.2c0-2.4-0.6-3-3-3c-2.3,0-4.6,0.1-6.9,0.2c-1.7,0.1-1.9,0.3-2,2
		c-0.1,1.6-0.2,3.1-0.3,4.7c-0.1,0.7-0.1,1.6-0.4,2.1c-0.4,0.5-0.5,0.7,0,1.2c0.3,0.3,0.3,1,0.2,1.5c0,1-0.2,2-0.1,3.1
		c0.1,2.7,1.3,24.2,1.5,29.6c0.1,3.6,1.5,6.7,3.7,9.4c1.2,1.4,2.6,2.8,4.5,3.4c1.5,0.5,3,0.9,4.5,1.4c2.7,0.9,5.4,1.7,8.2,1.6
		c0.6,0,1.2,0.4,1.9,0.6c0.2-0.2,0.4-0.6,0.7-0.7c0.7-0.2,1.6-0.2,2.1-0.6c0.6-0.4,1.1,0.6,1.6-0.2c0.4-0.5,1.2-0.8,1.8-1.2
		c0.1,0,0.1,0,0.2-0.1c2.5-0.9,4.4-2.7,6-4.7c0.6-0.7,1.1-1.4,2-2.5c0.1,1.2,0.2,2,0.3,2.7c0.1,0.9,0.1,1.8,0.1,2.7
		c0,1.1,0.6,1.5,1.6,1.8c2.8,1,5.2-0.2,7.8-0.8c0.9-0.2,0.9-0.9,0.9-1.6c0-2.3-0.1-4.6-0.1-6.9c0.1-4.4,0.4-8.8,0.5-13.2
		c0.1-4,0.1-8,0.1-12.1c0-4.4-0.1-8.8,0-13.2C440.5,55.8,440.8,53.3,440.8,50.8z M407.4,98.7c0.8,0.6,1.5,1.1,2.3,1.7
		c0,0.2-0.1,0.3-0.1,0.5c-0.7,0.1-1.5,0.2-2.5,0.4c-0.1-0.8-0.2-1.5-0.2-2.2C407.1,98.9,407.2,98.8,407.4,98.7z M399.2,53.6
		c1.1,0,2.1,0,3.2,0c0,1.1,0,2.1,0,3.3c-1.2-0.1-2.1-0.3-3.2-0.4C399.2,55.5,399.2,54.6,399.2,53.6z M398.1,48.6c0,1.2,0,2.3,0,3.5
		c-0.8,0.1-1.6,0.2-2.6,0.4c-0.1-1.4-0.2-2.6-0.3-4.1C396.3,48.5,397.1,48.6,398.1,48.6z M398.5,61.7c-1.2-0.1-2.1-0.2-3.1-0.3
		c0.1-1.1,0.2-2,0.2-3.1c0.7-0.1,1.4-0.2,2.4-0.3C398.1,59.2,398.3,60.2,398.5,61.7z M392,53.5c1.2,0.5,1.9,0.9,2.6,1.2
		c0,0.8-0.1,1.4-0.1,2.1c-0.9,0-1.7,0-2.7,0C391.8,55.9,391.9,55,392,53.5z M391.9,65.9c0-0.9,0-1.8,0-2.8c0.4-0.1,0.9-0.2,1.5-0.3
		c0.3,0.9,0.6,1.7,1,2.6C393.5,65.6,392.8,65.7,391.9,65.9z M392,74.3v-1.6c0.6-0.2,1.2-0.3,1.9-0.5c0,0.8,0.1,1.5,0.1,2.5
		C393.3,74.6,392.8,74.4,392,74.3z M392.8,82.4c0-0.7,0.4-1.1,1.2-0.8c0,0.9,0,1.8,0,3C392.4,84.2,392.8,83.2,392.8,82.4z
		 M394.8,93.1c-1.8,0.2-1.8,0.1-1.4-3c0.4,0,0.9,0,1.4,0C394.8,91.3,394.8,92.2,394.8,93.1z M397.6,97.1c-0.5,0-1,0-1.6,0
		c0-0.8,0-1.6,0-2.3C397.8,94.9,397.8,94.9,397.6,97.1z M398,88.2c-0.5,0.6-1.3,0-1.9-1.5c0.5-0.2,1.1-0.3,1.9-0.5
		C398,87,398,87.6,398,88.2z M395,79.8c0-0.7,0-1.4,0-2.2c0-0.6,0-1.3,0-2c1.2,0,2.1,0,3,0C399,79.3,398.9,79.4,395,79.8z
		 M395.2,70.5c0-1.3,0-2.5,0-3.8c0.9-0.2,2-0.5,2.7,0.4c0.5,0.7,0.4,1.8,0.7,3.2C397.3,70.4,396.3,70.5,395.2,70.5z M402.4,101.7
		c-1,0.1-2.1,0.1-3.3,0.2c-0.2-1.3-0.3-2.4-0.5-3.6c1.3-0.1,2.5-0.2,3.8-0.4C402.4,99.3,402.4,100.4,402.4,101.7z M398.9,93
		c0-1.1,0-2.1,0-3.3c1.1,0,2,0,3.2,0c0.1,1,0.2,2,0.3,3.1C401.1,92.9,400.1,93,398.9,93z M402.8,83.5c-1.3,0.2-2.5,0.3-3.8,0.5
		c0.1-1.1,0.2-2.1,0.3-3.4c1.2-0.2,2.3-0.4,3.6-0.6C402.8,81.3,402.8,82.3,402.8,83.5z M402.8,74.2c-0.2,0.1-0.4,0.3-0.5,0.2
		c-0.9-0.1-1.8-0.2-2.9-0.3c0-0.8,0.1-1.6,0.1-2.5c1.1-0.1,2.1-0.1,3.2-0.2C402.8,72.5,402.8,73.4,402.8,74.2z M399.4,65.5
		c-1.1-3,0.5-3.3,3.4-3c0,0.9,0.1,1.7,0.1,2.6C401.8,65.9,400.6,65.7,399.4,65.5z M403.2,94c1.8-0.4,1.3,1.4,2.6,1.9
		c-1.2,0.3-1.7,0.4-2.5,0.7C403.3,95.6,403.2,94.9,403.2,94z M403.8,105.1c-0.1-0.7-0.2-1.3-0.4-2.3c0.9-0.1,1.7-0.2,2.6-0.4
		C406.4,105,406.4,105,403.8,105.1z M410.2,106.8c-0.4,0.3-2.8,0-3.6-0.4c0-0.2,0-0.7,0-0.9c0.5,0,3.1-0.1,3.6-0.1
		C410.1,105.6,410.2,106.6,410.2,106.8z M411.2,102.5c2.5-0.7,2.6-0.6,3.1,1.8c-1,0.2-2,0.3-3.1,0.5
		C411.2,103.9,411.2,103.2,411.2,102.5z M413.1,107.3c-0.1-0.6-0.2-1-0.3-1.5c0.8,0,1.5,0,2.2,0c0.3,0,0.5,0,0.8,0
		c0.7,0,1.5,0,2.2,0c0,0.1,0.1,0.2,0.1,0.3C417.3,106.4,414.4,107.9,413.1,107.3z M419.4,104.4c0-1,0-1.6,0-2.5
		c0.8-0.1,1.6-0.2,2.5-0.4c0.1,0.9,0.1,1.6,0.2,2.6C421.2,104.2,420.4,104.3,419.4,104.4z M423.3,100.3c-0.2,0-0.6-0.4-0.7-0.7
		c-0.1-0.2,0.2-0.6,0.4-0.7c0.8-0.5,1.6-0.8,2.7-1.4c0.1,1,0.2,1.7,0.3,2.7C425,100.2,424.2,100.3,423.3,100.3z M427.8,96.1
		c0.4-0.6,0.8-1,1.2-1.6C429.3,95.6,428.9,96,427.8,96.1z M439.8,65.1c-0.8,0-1.4,0-2.2,0c-0.1-1-0.1-1.8-0.2-2.8
		c0.7-0.1,1.3-0.2,2.2-0.3C439.5,63,439.6,64,439.8,65.1z M436.8,74.7c0,0.8,0,1.6,0,2.5c-0.7,0-1.4,0-2.1,0
		c-0.1-0.9-0.2-1.6-0.4-2.5C435.2,74.7,435.9,74.7,436.8,74.7z M434.2,69.2c-0.1-1-0.2-1.9-0.3-3c1,0,1.7,0,2.5,0
		c0.1,0.9,0.3,1.7,0.5,2.8C435.9,69.1,435.2,69.1,434.2,69.2z M429.8,54.3c0.8-0.1,1.5-0.2,2.4-0.4c0.2,0.9,0.4,1.8,0.7,2.9
		c-1.1,0.1-2,0.2-3.1,0.3C429.8,56,429.8,55.1,429.8,54.3z M430,62.2c1,0,1.7-0.1,2.7-0.1c0.1,1.1,0.1,2,0.2,3.1c-1.1,0-1.8,0-2.8,0
		C430.1,64.3,430,63.4,430,62.2z M430.2,70.3c1,0,2,0,3,0c0,1.1,0,2.1,0,3.2c-1,0.1-1.8,0.1-3,0.2C430.2,72.4,430.2,71.4,430.2,70.3
		z M430.5,105c0.2-0.8,0.4-1.5,0.6-2.2c0-0.1,0.7-0.1,1,0c1,0.6,0.3,1.6,0.6,2.8C431.8,105.4,431.3,105.2,430.5,105z M432.8,98.3
		c-0.7,0-1.3,0-2.2,0c0.6-0.8,1.2-1.5,1.7-2.1c0.2,0.1,0.4,0.2,0.5,0.3C432.8,97.1,432.8,97.6,432.8,98.3z M433.1,89.6
		c-0.8,0-1.6,0-2.5,0c0-0.6-0.1-1.2-0.1-1.9c0.9-0.2,1.7-0.4,2.6-0.7C433.1,88.1,433.1,88.8,433.1,89.6z M430.8,82.2
		c-0.2-1.2-0.3-2.2-0.5-3.4c1-0.2,1.9-0.3,2.8-0.5c0.1,1.3,0.1,2.5,0.2,3.8C432.5,82.1,431.8,82.1,430.8,82.2z M433.5,49.8
		c0.8,0.1,1.5,0.2,2.4,0.3c0,1,0,1.9,0,2.8c-0.8-0.1-1.6-0.1-2.4-0.2C433.5,51.8,433.5,51,433.5,49.8z M433.8,58
		c0.6-0.1,1.2-0.2,2.1-0.3c0.2,1,0.3,1.9,0.5,3.2c-1.1,0.1-1.8,0.2-2.6,0.3C433.8,60,433.8,59.1,433.8,58z M435.9,101.6
		c-0.7,0.1-1.3,0.2-2.1,0.2c0-0.8,0-1.5,0-2.3c0.7-0.2,1.3-0.3,2.1-0.5C435.9,100,435.9,100.7,435.9,101.6z M436.4,94.4
		c-0.3,1.2-1.4,0.8-2.4,0.7c0-1.4,0-2.7,0-4c0.9-0.1,1.6-0.2,2.5-0.3C436.4,92.1,436.6,93.3,436.4,94.4z M436.8,86.1
		c-0.8,0-1.5,0-2.5,0c0-0.9-0.1-1.8-0.1-2.8c1.1,0,1.9,0,2.9,0C436.9,84.3,436.8,85.2,436.8,86.1z M439,53.6c0.1,1,0.2,1.9,0.2,2.9
		c-0.7,0.1-1.3,0.1-2.1,0.2c-0.1-0.9-0.2-1.7-0.2-2.6C437.6,53.9,438.2,53.8,439,53.6z M437.2,104.7c-0.2-1.7-0.2-1.7,1.7-1.9
		C439.2,104.1,438.8,104.7,437.2,104.7z M438.2,97.9c-0.5,0.1-1-0.2-0.9-0.9c0.2-0.9,0.6-1.4,1.7-0.9
		C438.9,96.7,439.3,97.7,438.2,97.9z M439,89.4c-0.1,0.3-0.7,0.3-1.3,0.6c0-1.3,0-2.2,0.9-2.8C439.5,87.9,439.3,88.7,439,89.4z
		 M439.5,82c-0.5,0-1,0.1-1.6,0.1c0-1.2,0-2.3,0-3.6c0.5,0,1-0.1,1.6-0.1C439.5,79.6,439.5,80.7,439.5,82z M439.3,73.3
		c-0.2,0.2-0.8,0.2-1.3,0.2c-0.1-0.9-0.2-1.7-0.3-2.5c-0.1-1.3,0.6-1.5,1.8-1.1C439.8,71.1,440,72.3,439.3,73.3z"/>
	<path class="st0" d="M376.3,107.4c-0.1-0.4-0.1-0.7-0.2-1.1c-0.1-0.7-0.2-1.3-0.2-1.9c-0.1-4.7-0.1-9.8-0.2-16c0-2.5,0-5,0-7.4
		v-1.5c0-0.8,0-1.6,0-2.4c0-1.7,0.1-3.5-0.1-5.2c-0.3-3.1-0.6-6.9-0.3-10.7c0.2-2.1-0.8-3.8-1.7-5.4c-0.4-0.7-0.8-1.4-1.1-2.1
		c-0.7-1.6-2.3-2.2-4-2.7l-0.2-0.2l0,0c-0.1-0.1-0.1-0.1-0.2-0.2c-0.4-0.4-0.8-0.9-1.3-1c-2.5-0.7-5.5-1.5-8.7-1.6c-0.3,0-0.6,0-1,0
		c-0.6,0-1.1,0-1.8,0H355c0,0-6.4,0.7-9.3,1.3c-1.4,0.2-3,0.7-4.6,1.4c-0.3,0.1-0.6,0.3-0.9,0.5c-0.1,0.1-0.2,0.1-0.3,0.2
		c-0.3,0.2-0.5,0.4-0.8,0.5c-0.5,0.4-1.1,0.7-1.6,0.9c-2.7,0.9-3.7,3.1-4.7,5.2c-0.2,0.5-0.5,1-0.7,1.5c-0.2,0.3,0,0.9,0.1,1.3
		c0,0.1,0.1,0.2,0.1,0.3c0.1,0.3,0.2,0.6,0.3,0.8c0.2,0.4,0.4,0.8,0.4,1.2c0.2,1.9,0.8,3.4,1.9,4.2s2.4,0.9,4.1,0.5
		c0.3-0.1,0.6-0.1,0.8-0.1c1.3,0.3,2.2-0.1,2.8-1.2c0.1-0.2,0.3-0.5,0.4-0.7c0.4-0.7,0.8-1.3,1-2.1c0.2-1.2,0.3-2.6,0.1-4
		c-0.2-1.4,0.1-2.6,1.1-3.8c0.7-1,1.5-1.9,2.3-2.7c0.2-0.2,0.4-0.5,0.7-0.7c0.1-0.1,0.3-0.1,0.5-0.1c3.4-0.1,7.9,0.1,12,2.4
		c2.1,1.2,3.1,2.8,3.2,5.1c0,0.5,0,1,0.1,1.4c0.1,1.9,0.2,3.9,0.4,5.9c0.1,1-0.1,1.3-1,1.7c-1.5,0.6-3,1.3-4.5,2
		c-0.8,0.4-1.6,0.7-2.4,1.1c-0.6,0.3-1.3,0.5-1.9,0.7l-0.2,0.1c-1.4,0.5-2.7,0.9-4.1,1.4l-1.2,0.2h-0.7c-1.7-0.4-3,0.3-4,1.3
		c-1.3,1.2-2.8,1.9-4.3,2.7l-0.3,0.2c-0.2,0.1-0.3,0.2-0.5,0.2c-1.7,0.8-3.4,1.6-4.1,3.7c-0.1,0.2-0.3,0.4-0.5,0.6
		c-0.1,0.1-0.2,0.2-0.3,0.4l-0.7,0.8c-0.9,1.1-1.7,2.2-2.6,3.3c-0.1,0.1-0.1,0.3-0.2,0.4c0,0.1,0,0.2-0.1,0.2
		c-1.2,2.9-1.2,5.9-1,8.7c0,0,0,0.2,0,0.3l0.1,0.3l1.3,2.6l0,0l0,0l0.4,0.9c0.3,0.6,2.8,4.6,4.5,5.3c0.3,0.1,0.6,0.2,0.9,0.4
		c0.2,0.1,0.5,0.2,0.8,0.2s0.6,0.1,0.8,0.3c1.6,1.5,3.6,1.6,5.5,1.8c0.2,0,0.5,0,0.7,0.1c0.3,0,0.7,0,1,0c2.2,0,4-0.6,5.4-1.9
		l0.7-0.1v0.1l0.3-0.1h0.1l0,0c0.2-0.1,0.4-0.1,0.6-0.2c0.5-0.1,1.1-0.3,1.6-0.5c0.3-0.2,0.6-0.2,1-0.3c0.7-0.2,1.4-0.4,1.8-1.1l0,0
		l0.6-0.6c2-0.9,3.8-2.1,5.4-3.7c0.8-0.1,0.9,0.4,1,1.2c0,0.1,0,0.2,0,0.3c0.2,1,0.2,2.1,0.3,3.1c0,0.4,0.1,0.8,0.1,1.3v0.1h0.1
		c1.3,0.1,2.6,0.4,3.8,0.7c2.3,0.5,4.7,1,7.3,0.7h0.2L376.3,107.4z M340.3,52.8c0.7-0.8,1.3-1.5,2.6-1.3c-0.8,1.9-1.6,2.9-2.4,3
		c-0.5,0.1-0.9-0.1-1.4-0.6C339.5,53.7,339.9,53.2,340.3,52.8z M342.8,59c0.1,1.3,0.1,2.4-0.8,3.3c-0.8-0.1-1.3-0.3-1.3-1.1
		c0-1.5,0.6-2.4,2-3C342.8,58.5,342.8,58.8,342.8,59z M337.8,55.1c1.1,1,2.1,1.1,3.3,0.3l0.6,1.7c-0.6,0.4-1.2,0.8-1.7,1.1
		C337.8,57.1,337.3,56.5,337.8,55.1z M334.6,57.1c0.4-0.6,0.8-1.2,1.1-1.9l2.5,3.8c-0.6,0.8-1.2,1.6-1.8,2.4h-2.6
		C332.9,59.5,333.8,58.3,334.6,57.1z M336.5,67.1c-0.3-0.3-0.5-0.6-0.7-0.8c-0.6-0.7-1.1-1.2-1.5-1.8c-0.3-0.5-0.4-0.9-0.2-1.2
		c0.2-0.3,0.6-0.6,1.2-0.7c0.1,0,0.3,0,0.4,0c0.2,0,0.3,0,0.4,0c0.2,0,0.5,0.1,0.8,0.2c0.1,0,0.2,0.1,0.4,0.1L336.5,67.1z
		 M338.8,60.3l0.6-0.7l0.2,0.1v3.5c-0.2,0.1-0.5,0.3-0.9,0.6c-0.3-0.8-0.5-1.3-0.8-2.1C338.1,61.2,338.5,60.8,338.8,60.3z
		 M338.1,66.2v-1c0.2-0.1,0.4-0.1,0.6-0.2c0.5-0.2,1.1-0.3,1.4-0.7c0.9-0.9,1.7-0.7,2.7-0.3C341.2,66.8,341.2,66.8,338.1,66.2z
		 M343.2,57c-1-1.9-0.3-3.2,0.6-4.7l0.1-0.2l2.3,0.7L343.2,57z M346.5,51.4c0.8-1.4,1.2-1.7,2.6-1.7c0.2,0,0.4,0,0.6,0L346.5,51.4z
		 M349.8,51.3l-0.1-0.2l0.7-0.1v0.1C350.2,51.2,349.9,51.2,349.8,51.3z M352.4,51c-0.2,0.3-0.4,0.5-0.6,0.5l0,0
		c-0.2,0-0.5-0.3-0.9-0.7c0.6-0.1,1-0.2,1.5-0.4l0,0c0,0.1,0,0.1,0,0.2S352.4,50.9,352.4,51z M355.9,51.7c-0.1,0-0.3-0.1-0.4-0.1
		c-0.4-0.1-0.8-0.2-1.2-0.4c-0.2-0.1-0.3-0.3-0.4-0.7c-0.1-0.1-0.1-0.3-0.2-0.5l1.1,0.1c0.7,0,1.3,0.1,1.9,0.1L355.9,51.7z
		 M372.4,93.2c-0.6-1.4-0.2-2.5,0.7-3.8c1.2,0.8,1.3,1.9,1.3,3.1c0,0.4,0,0.9,0.1,1.3l0,0c-1,0.2-1.8,0.4-2.4-0.3l0.3-0.1V93.2z
		 M373,87.4l-0.3,0.4c-1.2-0.6-1.1-1.4-1-2.5c0-0.4,0.1-0.7,0.1-1.1l3,0.6C374.1,85.8,373.6,86.6,373,87.4z M369,80.4
		c0.1-0.3,0.1-0.5,0.1-0.8c0.1-0.8,0.3-1.6,0.5-2.4c0.1-0.3,0.6-0.7,1-0.7c0.2,0,0.7,0.4,0.8,0.8c0.2,0.6,0.4,1.3,0.6,2
		c0.1,0.3,0.1,0.5,0.2,0.8 M374.1,81.3l0.5,2.1h-2.5c-0.1-0.4-0.2-0.8-0.4-1.4L374.1,81.3z M368.1,84.9c-0.1-0.6,0.2-1.3,0.4-1.9
		c0.1-0.3,0.2-0.6,0.3-0.9c0.6,0.1,1.1,0.1,1.7,0.2c0.3,1.9,0.4,3.7-1.3,5.4c-0.1-0.3-0.3-0.5-0.4-0.8
		C368.5,86.1,368.2,85.5,368.1,84.9z M368.6,90.4v1.5l0,0c-0.1,0-0.2-0.1-0.2-0.1c0-0.4,0-0.7,0.1-1.1c0-0.1,0-0.2,0-0.3H368.6z
		 M366,86.7c0.7-0.3,1-0.4,1.5,0.2c0.5,0.7,0.2,1-0.4,1.5c-0.1,0.1-0.3,0.2-0.4,0.4l-1.1-1.9C365.8,86.8,365.9,86.7,366,86.7z
		 M365.6,81.7c0-0.3,0.3-0.7,0.6-1.1c0.1-0.2,0.3-0.3,0.4-0.5c0.7,1.3,1,2.4,0.7,3.2c-0.2,0.6-0.7,1.2-1.6,1.6c0-0.3,0-0.5-0.1-0.8
		C365.6,83.3,365.5,82.5,365.6,81.7z M367.8,78.2c-1.5,0.3-1.9,0.4-2.3-0.4l-0.1-3.3c0.4-0.2,0.8-0.3,1.2-0.5
		C368.6,75.6,368.6,75.7,367.8,78.2z M365.9,67.2c0-0.2,0.1-0.3,0.1-0.5c0.8,0.4,1.5,0.7,2.3,1c0,0.1-0.1,0.2-0.1,0.3
		c-0.1,0.3-0.1,0.5-0.2,0.7l-0.1,0.2c-0.3,0.8-0.5,1.2-1.1,1c-0.4-0.2-0.8-1-0.9-1.6C365.8,68,365.8,67.6,365.9,67.2z M365.8,65.4
		v-0.2c-0.3-1.3-0.5-2.6-0.1-3.9c0.4,0.8,0.8,1.7,1.2,2.5c0.2,0.5,0.3,0.8,0.3,0.9C366.9,65,366.4,65.2,365.8,65.4z M368.6,73.7
		l0.1-0.1c0.1-0.2,0.2-0.3,0.3-0.5c0.2-0.2,0.3-0.5,0.5-0.7l0.1-0.2l0.3,0.2c0.5,0.3,0.9,0.6,1.5,1.1c-0.1,0.1-0.2,0.3-0.3,0.4
		c-0.3,0.4-0.5,0.8-0.9,0.9C369.5,75.1,369.1,74.6,368.6,73.7z M370.9,70.3l-0.3,0.6h-1.9c0-1.4,0.7-2.4,2.3-3.2
		c0.3,0.2,0.6,0.5,0.9,0.8l0.1,0.1C371.6,69.2,371.2,69.8,370.9,70.3z M372.2,62.8l0.4,0.1c0.5,0.1,1,0.3,1.6,0.5v4.7
		c-1-0.1-1.5-0.6-2.1-1.6C371.4,65.1,371.2,64,372.2,62.8z M369.9,62c-0.8-0.4-0.7-0.9-0.6-1.9V60c0.9,0.5,1.7,0.9,2.4,1.4
		C371.2,61.9,370.8,62.4,369.9,62z M370,63.8c-0.1,0.7,0.1,1.2,0.3,1.7c0.1,0.1,0.1,0.3,0.2,0.4c0.1,0.3,0.1,0.6-0.2,0.8
		c-0.3,0.3-0.6,0.3-1,0.2c-0.5-0.2-1-0.5-1.4-0.7c-0.1-0.1-0.3-0.2-0.4-0.3c0.1-0.2,0.2-0.4,0.3-0.7c0.2-0.6,0.4-1.1,0.7-1.6
		c0.2-0.3,0.6-0.7,0.7-0.7C369.6,63.2,370.1,63.7,370,63.8z M368.8,57.9c0,0.3-0.1,0.7-0.1,1c-0.3-0.2-0.4-0.4-0.5-0.6
		c0-0.2,0.2-0.5,0.6-0.8V57.9z M368.8,59.2l-1.1,3.2c-0.1-0.2-0.2-0.4-0.2-0.5c-0.2-0.5-0.4-0.9-0.7-1.3c-0.2-0.3-0.4-0.4-0.6-0.4
		c0,0,0,0-0.1,0s-0.3,0.1-0.5,0.4l-0.8-0.5c0.1-0.1,0.1-0.2,0.2-0.3c0.2-0.3,0.3-0.6,0.6-0.7c0.9-0.5,1.9-0.3,2.8,0
		C368.4,59.2,368.5,59.2,368.8,59.2z M364.9,72c0.1-0.3,0.2-0.6,0.4-0.9l2.9,0.1c-0.8,1.3-2.2,1.9-3.5,1.4L364.9,72z M365.9,89.6
		c0.1,0.1,0.2,0.3,0.4,0.4c0.4,0.4,0.8,0.8,0.7,1.5c-1.9,0.5-1.7-1.5-1.8-2.9C365.4,88.9,365.6,89.3,365.9,89.6z M365.9,92.6
		l0.5,0.2c0.4,0.2,0.7,0.3,1,0.5l-0.1,2.3C365.9,95.1,365.5,94.4,365.9,92.6z M366.9,98.7c0.2-0.5,0.3-0.8,0.4-1.2
		c0.3,0,0.5,0,0.8,0c1.7,0,2.5,0.6,3.1,2.4c-0.1,0-0.2-0.1-0.3-0.1c-0.4-0.2-0.8-0.4-1.3-0.4c-0.3,0-0.6,0.1-1,0.3
		c-0.2,0.1-0.7-0.2-1.1-0.4c-0.2-0.1-0.4-0.2-0.6-0.3V98.7z M370.1,95.2c-0.2,0.4-0.3,0.8-0.5,1.1c-0.6-0.3-0.9-0.5-1-0.8
		s-0.1-0.6,0.2-1.2c0.2-0.5,0.7-1,1.2-1.4c0.2-0.2,0.4-0.4,0.6-0.5l0.1,0.1c0.3,0.3,0.6,0.6,0.9,0.8
		C370.8,93.7,370.4,94.5,370.1,95.2z M369.8,91c0-0.1,0-0.2,0-0.2c0-1.1,0-2.1,1.2-2.7c0.7,0.5,0.9,0.9,0.9,1.2
		C371.9,89.7,371.1,90.2,369.8,91z M374.8,76.9c0,1.1,0,2.1-0.9,2.9l-0.6-0.1c-0.3-1.5-0.6-3-1-4.7h2.5
		C374.8,75.7,374.8,76.3,374.8,76.9z M374.6,73.5c-1,0.4-1.4-0.2-1.9-0.9c-0.2-0.3-0.4-0.6-0.7-0.8c1-1.7,1.1-1.8,2.6-1.8V73.5z
		 M374.2,61.3c-0.3-0.2-0.6-0.3-0.9-0.5c-0.9-0.5-1.7-0.9-2.5-1.4c-0.4-0.2-0.6-0.6-0.7-1.1c-0.1-0.4,0-0.9,0.3-1.2
		c0.2-0.3,0.8-0.5,1.4-0.5l0,0c0.6,0,1,0.2,1.3,0.4C374,58.3,374.4,59.6,374.2,61.3z M370.4,52.6c0.7,0.9,1.4,1.6,2.3,2.8h-0.3
		c-1.2,0.1-2.1,0.2-3,0.3l-0.4-0.5c-0.3-0.4-0.5-0.8-0.8-1.3C368.9,53.4,369.6,53.1,370.4,52.6z M358.2,48.9L358.2,48.9l-0.8-0.1
		L358.2,48.9z M361.1,53.5c-0.3,0.1-0.8-0.3-1.8-0.9l2.5-0.2C361.6,53,361.4,53.4,361.1,53.5z M358,51.2c1.8-1.7,2.9-2,5.1-1.5
		C362.3,51.1,360.8,51.5,358,51.2z M363.6,55l-1-0.8l1-0.2V55z M363.8,52.4c-0.1-0.3-0.1-0.6,0-0.9c0.2-0.4,0.6-0.7,1.1-0.8
		c0.9-0.2,1.7,0.1,2.6,0.4c0.3,0.1,0.6,0.2,0.8,0.3c0,0.3-0.1,0.6-0.1,1.1v0.2l-0.7-0.8l-0.5-0.5l-1.8,1.3L363.8,52.4z M366.6,53
		l1.5,3.5c-0.9,1.1-1.9,1.5-3.3,1.4C364,55.6,364.1,55.3,366.6,53z M363.4,69.8c0.1-0.1,0.1-0.2,0.1-0.2c0.1,0,0.2,0.1,0.3,0.1h0.1
		l-0.2,1.7c-0.1-0.1-0.3-0.2-0.4-0.2c-0.2-0.1-0.4-0.2-0.5-0.3C362.9,70.5,363.2,70.1,363.4,69.8z M358.9,72.2
		c0.2-0.3,0.4-0.6,0.7-0.7c0.4-0.1,1,0,1.4,0.3c0.2,0.1,0.3,0.3,0.5,0.7c0.1,0.2,0.2,0.4,0.3,0.6c-0.2,0-0.5,0.1-0.7,0.1
		c-0.5,0.1-1,0.2-1.4,0.1c-0.3,0-0.6-0.3-0.8-0.5c-0.1-0.1-0.2-0.2-0.3-0.2C358.8,72.4,358.9,72.3,358.9,72.2z M357.8,74.1
		c0.3-0.2,0.8-0.1,1.4,0.1l-0.7,0.8c-0.3,0-0.7,0-1.1-0.1C357.4,74.5,357.6,74.2,357.8,74.1z M356.4,72.8c0.2-0.1,0.3-0.2,0.5-0.3
		c-0.5,2-0.6,2-2,2.2c0-0.1,0-0.2-0.1-0.3c-0.1-0.2-0.1-0.5-0.1-0.6C355.2,73.5,355.8,73.2,356.4,72.8z M353.5,74.3L353.5,74.3
		c0.1,0.6,0.3,1.1,0.4,1.7c-0.4,0-0.8,0.1-1.2,0.1l0,0L353.5,74.3z M352.5,74.4c-0.2,0.2-0.3,0.4-0.5,0.6c-0.5,0.6-0.8,1.1-1.2,1.5
		c-0.1,0.1-0.6,0.2-0.8,0.1c-0.1-0.1-0.2-0.5-0.2-0.8C350.1,74.8,350.8,74.4,352.5,74.4z M350.2,78c-0.3,0.3-0.6,0.5-0.8,0.5l0,0
		c-0.2,0-0.5-0.1-0.7-0.4C349.2,77.7,349.4,77.7,350.2,78z M345,81.3c0.1-0.1,0.2-0.2,0.2-0.3c0.2-0.3,0.5-0.6,0.7-0.9
		s0.5-0.6,0.8-0.9c0.1-0.1,0.2-0.3,0.3-0.4l0.2,0.1c0.5,0.2,1,0.5,1.4,0.7c-0.5,0.9-1.2,1-1.6,1.8l-0.1,0.1L345,81.3z M345.2,82.8
		c-0.9,0.7-1.7,1.4-2.5,2c-0.1-0.1-0.2-0.3-0.2-0.4c-0.2-0.4-0.4-0.7-0.5-1.1c-0.1-0.3,0-0.9,0.1-1c0.2-0.2,0.6-0.3,1-0.3
		c0.1,0,0.2,0,0.2,0c0.5,0.1,0.9,0.3,1.4,0.5C344.8,82.6,345,82.7,345.2,82.8z M346,75.7c0.7-0.2,1.4-0.4,2-0.6l0.8-0.2
		c-0.2,1.8-1.6,2.5-3,3.3l-0.2,0.1c-0.1,0-0.1-0.1-0.2-0.1c-0.1-0.1-0.2-0.2-0.3-0.3c-0.4-0.7-0.6-1.2-0.5-1.4
		C344.9,76.2,345.3,75.9,346,75.7z M344.4,78.7c0.2,0.2,0.3,0.3,0.3,0.5s-0.2,0.4-0.4,0.6L344.4,78.7z M341.8,78.9
		c0.2-0.2,0.7-0.3,1.5-0.3c-0.4,1.9-0.5,2-1.8,2.1C341.5,79.7,341.6,79.2,341.8,78.9z M340.4,82.1l1.1,4c-0.1,0-0.2,0-0.4-0.1
		c-0.5-0.1-0.9-0.1-1.4-0.2c-0.4-0.1-0.9-0.2-1.3-0.3c-0.1,0-0.2,0-0.3-0.1l0.2-0.3c0.3-0.5,0.7-1,1-1.4s0.5-0.8,0.8-1.3
		C340.2,82.3,340.3,82.2,340.4,82.1z M336,92.1l-1.8-0.1l0.5-2.1h2.4C336.6,90.7,336.3,91.4,336,92.1z M337.3,99
		c-0.4,0.2-0.6,0.2-0.8,0.1c-0.2-0.1-0.2-0.4-0.2-0.7C336.6,98.6,336.9,98.7,337.3,99z M336.1,94.4c-0.2,0.4-0.3,0.9-0.4,1.3
		c-0.1,0.8-0.3,1.5-0.9,2c-0.7-1.2-0.9-2-0.6-2.4C334.4,94.8,335,94.6,336.1,94.4z M336.4,88.5L336.4,88.5c-0.1-0.2-0.1-0.4-0.1-0.7
		c0-0.6,0-1.1,0-1.6c0-0.3,0.1-0.5,0.2-0.6c0.1,0,0.2-0.1,0.3-0.1c0.2,0,0.5,0.1,1,0.2l0,0l0.8,0.6L336.4,88.5z M337.4,91.5
		c0.1-0.1,0.4-0.2,0.8-0.2c0.2,0,0.4,0,0.6,0c0.3,0,0.6,0,0.9-0.1c0.2,0,0.4-0.1,0.6-0.1h0.2c0.2,0.5,0.2,0.8,0.1,1
		c-0.1,0.3-0.5,0.3-1,0.4s-1,0.2-1.5,0.2c-0.2,0-0.4,0.1-0.5,0.1C337.4,92.2,337.3,91.7,337.4,91.5z M340.6,89.4
		c-0.4,0.3-1.1,0.4-2.1,0.2c0.2-0.7,0.5-1.4,0.7-2.1c0.7-0.1,1.4-0.3,2.1-0.4C341.3,88.4,341.1,89.1,340.6,89.4z M340.1,79.2
		c-0.1,1.6-0.5,2.7-1.3,3.4c-0.7,0.6-1.6,0.8-2.7,0.7C336.3,80.9,338.2,80.1,340.1,79.2z M333.9,87.5c0-0.8,0-1.6,0.2-2.4
		c0.1-0.3,0.3-0.6,0.5-0.6c0.3-0.1,0.6,0,0.9,0.3c-0.1,0.1-0.1,0.3-0.2,0.4c-0.2,0.4-0.4,0.8-0.5,1.2c-0.1,0.4-0.2,0.8-0.2,1.3
		c0,0.2,0,0.4-0.1,0.6c-0.1-0.1-0.2-0.1-0.3-0.2c-0.1-0.1-0.3-0.2-0.3-0.2V87.5z M332.4,87.5c1.3,2.7,1.2,3.5-0.7,5.2
		C330.3,91.1,330.5,89.7,332.4,87.5z M333.1,94.2c-0.1,1.3-0.2,1.4-1.7,1.5c-0.1-0.5-0.2-1-0.3-1.8L333.1,94.2z M331.8,99.6
		L331.8,99.6L331.8,99.6c-0.1-0.5-0.2-0.9-0.3-1.3c0-0.1,0-0.1-0.1-0.2c-0.1-0.4-0.4-0.7-0.8-1c0,0,0-0.1-0.1-0.1
		c0.9-0.3,1.8,0,2.7,0.3C333.1,99.4,333.1,99.4,331.8,99.6z M333.1,101.9c0.1-0.2,0.2-0.4,0.3-0.6c0.3-0.6,0.6-1.3,1-1.9
		c0.1-0.1,0.4-0.2,0.7-0.3c0.1,0,0.3-0.1,0.4-0.1l-1.7,3.4L333.1,101.9z M337.3,105.3l-2.6-1.5c0.2-0.3,0.3-0.7,0.5-1
		c0.4-1.1,0.8-2.1,2.5-2.3L337.3,105.3z M337.3,96.1c-0.1-2.1,0-2.1,3.7-2.5c0.6,0.8,0.2,1.3-0.3,2c-0.1,0.1-0.2,0.2-0.3,0.4
		l-0.4,0.2L337.3,96.1L337.3,96.1z M340,96.4l0.5-0.2c0.1,0,0.2,0,0.3,0c0.1,0,0.3,0,0.4,0c0.6,0.8,1.1,1.6,1.7,2.5l0.3,0.5
		c-0.3,0.2-0.5,0.3-0.8,0.5c-0.2,0-0.4-0.1-0.6-0.1c-0.5-0.1-1-0.2-1.5-0.3h-0.1c-1.4-0.1-1.4-0.1-1.8-1.7L340,96.4z M339.1,105.3
		c-0.2-0.2-0.4-0.4-0.6-0.6c-0.1-0.1,0-0.5,0.1-0.7c0-0.2,0.1-0.3,0.1-0.5c0.2,0,0.3,0.1,0.4,0.1c0.2,0,0.4,0.1,0.4,0.1
		c0.5,0.3,1,0.6,1.4,0.9l0.4,0.2l0.2,2.1C340.5,106.8,339.8,106,339.1,105.3z M338.8,101.4l1.3-1.1h0.1c1.3,0,1.8,0.8,2.3,1.7
		c0.3,0.5,0.6,1,1,1.4c-0.1,0-0.2,0.1-0.4,0.1c-0.4,0.1-0.7,0.3-1.1,0.2C341.2,103.7,339.6,102.5,338.8,101.4z M343.5,106.4
		c-0.4-0.3-0.8-0.7-0.8-0.9c0-0.2,0.2-0.4,0.5-0.6c0.4-0.3,0.9-0.5,1.3-0.7c0.2-0.1,0.4-0.2,0.6-0.2c0.3-0.1,0.7-0.2,1-0.3
		c0.8-0.2,1.7-0.5,2.2-1.4c0.1,0,0.3,0,0.5,0.1h0.2c-0.3,0.6-0.6,1.2-0.9,1.8C345.8,104.2,345.6,104.2,343.5,106.4z M343.4,100.9
		c0-0.4,0.4-0.8,1.3-1.3l3.1,2.4c-0.4,0.1-0.9,0.2-1.3,0.3c-0.3,0.1-0.7,0.2-1,0.3l-0.4,0.1C343.9,101.9,343.4,101.4,343.4,100.9z
		 M347.4,107.4c-1.5,0.4-1.5,0.4-2.2-0.5l-0.2-0.2c0.5-0.8,0.8-1.3,1.3-1.4h0.1c0.5,0,1.3,0.5,2.8,1.6
		C348.4,107.2,347.9,107.3,347.4,107.4z M349.6,103.8c0.1-0.1,0.2-0.2,0.4-0.3c0.4-0.3,0.7-0.7,1.1-1s0.9-0.6,1.4-0.9
		c0.2-0.1,0.4-0.2,0.5-0.3l1.7,0.1c-0.8,0.8-1.7,1.1-2.6,1.5c-0.8,0.3-1.6,0.6-2.3,1.2C349.8,104,349.6,103.9,349.6,103.8z
		 M350.1,106c0.7-1.4,2-1.9,3.6-2.3C353.4,104.5,353.4,106.1,350.1,106z M354.6,104.4c0.1-1.8,0.4-2.1,1.9-2.2c0.1,0,0.2,0,0.3,0
		c0.3,0,0.8,0,0.7,0.2C356.8,104.2,354.6,104.4,354.6,104.4z M358.3,101.2l-1.4-0.4l0.8-0.5c0.4-0.2,0.7-0.4,1-0.6l0.1,0.1v0.1
		C358.8,100.2,358.5,100.6,358.3,101.2z M360.6,100.4c-0.2,0.2-0.4,0.4-0.7,0.6c-0.1,0.1-0.2,0.2-0.3,0.2c0-1,0.6-1.6,1.2-2.2
		c0.3-0.3,0.6-0.6,0.8-1l0.6-0.6c0.3,0,0.3,0.1,0.4,0.1c0,0.1,0,0.2-0.1,0.4c-0.1,0.2-0.1,0.4-0.1,0.6c-0.2,0.2-0.4,0.4-0.6,0.6
		C361.4,99.5,361,100,360.6,100.4z M363.4,99.2l-0.1,0.5c-0.3,0.1-0.6,0.1-0.9,0.2v-0.1c0.1-0.4,0.3-0.8,0.4-1.2l0.7-0.3
		C363.4,98.7,363.4,99,363.4,99.2z M362.3,96.5c-0.6,0.7-9,4.2-12.3,4.4c-1.7,0.1-2.9-0.3-4-1.9c-0.4-0.6-1-1.1-1.6-1.5
		c-0.9-0.6-1.5-1.3-1.8-2.5c-0.8-3-0.1-5.8,1-9c0.2-0.5,0.7-1,1.3-1.4c0.3-0.2,0.5-0.4,0.8-0.6c0.2-0.2,0.4-0.3,0.7-0.3
		c0.5-0.2,1-0.4,1.1-1.1c0.2-0.2,0.4-0.5,0.6-0.7c0.5-0.6,1.1-1.2,1.7-1.8c0.3-0.3,0.7-0.6,1.1-0.9c0.2-0.1,0.4-0.3,0.6-0.4
		c0.2-0.2,0.5-0.4,0.7-0.5c0.5-0.4,0.9-0.8,1.5-0.9c0.3-0.1,0.6-0.3,0.9-0.5c0.5-0.3,1.1-0.7,1.9-0.4c0.1,0,0.1,0,0.2,0
		c0.4,0,0.8-0.3,1.3-0.7c0.2-0.1,0.4-0.3,0.5-0.4l5.6-1.9l0.5,5.3c0,0.2,0,0.4,0,0.6c0,2.3,0,4.7,0,7.1c0,0.2-0.2,3.3-0.2,3.3
		c0,0.1,0,0.3,0,0.4c0,0.3,0,0.6,0,1C364.8,93.7,363.8,94.9,362.3,96.5z M365.1,98.9c-1.2-1.7-1.2-1.8-0.2-3.4
		C365.8,96.7,365.8,97.6,365.1,98.9z M365.8,100.2c0.1-0.1,0.2-0.2,0.4-0.2c0.3,0,0.7,0.3,1.5,1c-0.4,0.6-0.9,1.2-1.4,1.8
		C365.4,101.7,365.2,100.7,365.8,100.2z M366.1,105c0.3-0.5,0.6-1,0.9-1.5l0.4-0.6c0.5,0.7,1,1.3,1.6,2.1H366.1z M368.6,102
		c0.4-0.5,0.8-1,1.3-1.6c0.7,0.4,1.5,0.8,2.5,1.2c-0.9,0.7-1.8,1.2-2.7,1.9C369.2,103,368.9,102.5,368.6,102z M370.4,106l-0.4-0.2
		l0.4-0.7c0.2-0.3,0.3-0.5,0.5-0.8C371.1,105.2,370.9,105.7,370.4,106z M375,106.4l-2.8-0.1c0.3-1.8,0.9-3.2,2.8-4.3V106.4z
		 M373.8,100.9c-0.2-0.3-0.4-0.5-0.5-0.8c-0.4-0.6-0.8-1.2-1.3-1.6c-1.2-1-1.3-2-0.3-3.5c0.9,0.1,1.8,0.1,2.9,0.2
		c0,0.6,0.2,1.2,0.3,1.8C375.2,98.5,375.6,99.8,373.8,100.9z"/>
</g>
<g>
	<path class="st0" d="M138.7,141.3c-0.5-0.6-1.3-0.6-2.4-0.4c-1,0.3-3.3,2.1-4.3,2.8c-0.9,0.8-3.8,3.4-3.3,4.4
		c0.3,0.8,1.6,0.7,3.1,0.2c1.6-0.6,3.3-1.8,4.2-2.5s2.8-3.2,2.9-3.2c0.1-0.1,1.2,0.4,1.4,0.6c0.2,0.2-1.4,1.9-1.7,2.2
		c-0.2,0.3,0.9,2.5,3.6,2.6c2.6,0.1,5.9-2.7,6.2-2.7c0.2,0,0.1,0.7,0.1,0.8c-0.1,0.2-1.9,1.7-4.2,2.5s-3.8,0.6-5.1-0.2
		c-1.1-0.7-2.3-2.1-2.5-2.1c-0.1,0-1.3,1.5-3.9,2.8c-3.5,1.8-5.5,1.4-6.4,0.6c-0.9-0.8-0.5-2.8,3.1-6.3c3.7-3.5,6.9-4.5,8.1-4.5
		c1.1-0.1,2.6,0.9,2.6,1.4c0.1,0.4-1.1,1.5-1.2,1.5C139.1,141.8,139,141.6,138.7,141.3z"/>
	<path class="st0" d="M155.3,140.9c-1,0.3-4.6,2.2-5.4,3.7c-0.8,1.5-1,4.2,2,4c3-0.3,8.1-1.6,10.4-2.6c2.2-1,4.5-1.6,3.1-0.8
		s-4.2,2.4-6.2,3.1c-2,0.7-8,2.3-9.9,1.8s-3.6-3.2,0.2-6.9c3.9-3.7,7.8-4.9,8.7-4.2c0.9,0.6,1,1.9,0.6,1.9S156.3,140.6,155.3,140.9z
		"/>
	<path class="st0" d="M171,140.9c-1,0.3-4.6,2.2-5.4,3.7c-0.8,1.5-1,4.2,2,4c3-0.3,8.1-1.6,10.4-2.6c2.2-1,4.5-1.6,3.1-0.8
		s-4.2,2.4-6.2,3.1c-2,0.7-8,2.3-9.9,1.8s-3.6-3.2,0.2-6.9c3.9-3.7,7.8-4.9,8.7-4.2c0.9,0.6,1,1.9,0.6,1.9S172,140.6,171,140.9z"/>
	<path class="st0" d="M195.7,146c-2.7,2.1-5.1,3.9-11.2,4.1c-5.5,0.2-7.9-4.8-4-8.5c3.8-3.6,7-3.3,7.7-2.2s0.3,2.1-0.8,3.5
		c-1.1,1.3-6.1,3.5-6.1,3.5c0.5,0.9,1,2.2,3.7,2.5c5.8,0.7,10.1-3.3,10.7-3.5C196.4,145.3,195.7,146,195.7,146z M185.4,142.9
		c1.4-1.3,1.7-2.3,0.8-2.6c-0.8-0.2-4.9,2.2-5.3,4.4C180.8,144.9,184,144.2,185.4,142.9z"/>
	<path class="st0" d="M215.7,146.1c-0.4,0.8-4.7,2.6-7.3,3.3c-2.5,0.6-7.4,1.1-10.1,0c-2.6-1.1-3.1-3.8-2.7-4
		c4.6-3.3,6.1-4.4,6.2-4.7c0.1-0.3,0-0.5,0.1-1.2c0.1-1,0.8-1.8,1.7-1.7c1,0.2,0.2,2.4,0,3.2c-0.1,0.8,1.2,3.6,1.3,5.2
		c0.2,1.5-0.3,2.1-0.1,2.4c0.1,0.3,2.8,0,5.5-1C213.2,146.7,216.1,145.3,215.7,146.1z M201.9,142c-0.2,0.1-4.2,2.9-4.5,3.1
		c-0.3,0.2-0.3,2.8,2.2,3.9c2.5,1.2,3.3-1.4,3.4-2C203.1,146,202.2,141.9,201.9,142z"/>
	<path class="st0" d="M235.1,146.1c-0.4,0.8-4.7,2.6-7.3,3.3c-2.5,0.6-7.4,1.1-10.1,0c-2.6-1.1-3.1-3.8-2.7-4
		c4.6-3.3,6.1-4.4,6.2-4.7c0.1-0.3,0-0.5,0.1-1.2c0.1-1,0.8-1.8,1.7-1.7c1,0.2,0.2,2.4,0,3.2c-0.1,0.8,1.2,3.6,1.3,5.2
		c0.2,1.5-0.3,2.1-0.2,2.4c0.2,0.3,2.8,0,5.5-1C232.7,146.7,235.5,145.3,235.1,146.1z M221.3,142c-0.2,0.1-4.2,2.9-4.5,3.1
		c-0.3,0.2-0.3,2.8,2.2,3.9c2.5,1.2,3.3-1.4,3.4-2C222.5,146,221.6,141.9,221.3,142z"/>
	<path class="st0" d="M255.5,146.2c-0.7,0.2-3,0.8-5.1,0.8c-2,0-5.1-1.8-5.1-1.8s-0.8,4.9-7.2,4.9c-4.2,0-4.6-5.4-1.8-8
		s5.2-2.3,5.2-2.3c0.2-0.7,1.5-1.4,2.9,0s1.4,4.2,1.4,4.2s-0.2,0.5,2.1,1.3s4.2,0.9,7.1-0.1C257.9,144.5,256.2,145.9,255.5,146.2z
		 M244.4,144.6c-1.4-1-2.7-3.7-2.7-3.7s-1.2,0.3-2.4,1c-1.8,1-4.9,5.7-0.5,6.7C242.3,149.5,244.6,144.7,244.4,144.6z"/>
	<path class="st0" d="M255.5,145.4c3.7-2.4,4.3-6.1,4.3-6.7c0-0.6,0.8,0.4,1.5,1.1c0.6,0.7,2.9,3,2.9,3.4s0,4.4,2.6,5.1
		c3.4,0.8,6.9-1.5,8.1-2.3c1.1-0.8,1.4,0.1,0.7,0.6c-0.7,0.5-1.7,1.2-3.2,2c-1.4,0.7-3.8,1.9-6,1.4c-2.2-0.4-3.7-2.3-3.6-6
		c0-0.8-2.3-1.6-2.8-1.4c-0.4,0.2-2.7,2.8-4.7,3.8c0,0-0.2,0.1-0.5,0c-0.2-0.1-0.3-0.3,0.3-0.7L255.5,145.4z"/>
	<path class="st0" d="M279.6,140.5c0.1,0.3,0.1,0.6,0,1c-0.2,0.3-0.4,0.7-0.7,1.2c-0.4,0.5-0.8,1.1-1.2,2c-0.5,0.9-0.6,1.6-0.5,2.1
		s0.4,0.9,0.8,1.2s0.9,0.5,1.7,0.5c1.7,0.1,2.5-0.2,3.2-0.4s1.5-0.6,2.2-0.9c0.7-0.3,1.6-0.7,2.1-1.1c0.7-0.5,1.4-0.6,1.6-0.5
		c0.3,0.2,0.1,0.5,0,0.5c-0.1,0.1-0.4,0.3-1,0.6s-1.3,0.6-2.1,1c-0.8,0.3-1.7,0.8-2.6,1.2c-1.9,0.8-2.6,1-4.8,1
		c-0.8,0-1.5-0.3-2.2-0.6c-0.6-0.3-1-0.6-1.2-1.1c-0.1-0.3-0.1-0.8,0-1.4c0.1-0.6,0.3-1.2,0.6-1.9c0.2-0.6,0.5-1.3,0.9-2
		c0.3-0.7,0.7-1.3,1-1.8s0.6-0.9,0.9-1.3c0.2-0.3,0.4-0.4,0.5-0.3C279.2,139.9,279.5,140.2,279.6,140.5z M281.9,132.3
		c0-0.2,0-0.5,0.1-0.9c0.1-0.3,0.2-0.6,0.4-1c0.2-0.4,0.3-0.6,0.5-0.9c0.2-0.3,0.4-0.5,0.6-0.7c0.1-0.1,0.3-0.2,0.5-0.2
		s0.4,0.1,0.7,0.2c0.2,0.1,0.4,0.3,0.6,0.5s0.4,0.4,0.4,0.6c0.1,0.2,0.1,0.5-0.1,0.6c-0.1,0.2-0.4,0.5-0.7,0.8
		c-0.3,0.3-0.7,0.6-1,0.8c-0.4,0.2-0.7,0.4-1,0.5c-0.3,0.2-0.6,0.2-0.6,0.1C282.1,132.8,281.9,132.6,281.9,132.3z"/>
	<path class="st0" d="M304.5,146c-2.7,2.1-5.1,3.9-11.2,4.1c-5.5,0.2-7.9-4.8-4-8.5c3.8-3.6,7-3.3,7.7-2.2s0.3,2.1-0.8,3.5
		c-1.1,1.3-6.1,3.5-6.1,3.5c0.5,0.9,1,2.2,3.7,2.5c5.8,0.7,10.1-3.3,10.7-3.5C305.2,145.3,304.5,146,304.5,146z M294.1,142.9
		c1.4-1.3,1.7-2.3,0.8-2.6c-0.8-0.2-4.9,2.2-5.3,4.4C289.6,144.9,292.7,144.2,294.1,142.9z"/>
	<path class="st0" d="M324.4,146.1c-0.4,0.8-4.7,2.6-7.3,3.3c-2.5,0.6-7.4,1.1-10.1,0c-2.6-1.1-3.1-3.8-2.7-4
		c4.6-3.3,6.1-4.4,6.2-4.7s0-0.5,0.1-1.2c0.1-1,0.8-1.8,1.7-1.7c1,0.2,0.2,2.4,0,3.2c-0.1,0.8,1.2,3.6,1.3,5.2
		c0.2,1.5-0.3,2.1-0.1,2.4c0.1,0.3,2.8,0,5.5-1C322,146.7,324.8,145.3,324.4,146.1z M310.6,142c-0.2,0.1-4.2,2.9-4.5,3.1
		c-0.3,0.2-0.3,2.8,2.2,3.9c2.5,1.2,3.3-1.4,3.4-2C311.8,146,310.9,141.9,310.6,142z"/>
</g>
</svg>
